<svg width="22" height="20" viewBox="0 0 22 20" fill="none" xmlns="http://www.w3.org/2000/svg">
<path d="M17.7779 4.44446H7.77789C6.55059 4.44446 5.55566 5.43938 5.55566 6.66668V16.6667C5.55566 17.894 6.55059 18.8889 7.77789 18.8889H17.7779C19.0052 18.8889 20.0001 17.894 20.0001 16.6667V6.66668C20.0001 5.43938 19.0052 4.44446 17.7779 4.44446Z" stroke="#C6CBD2" stroke-linecap="round" stroke-linejoin="round"/>
<path d="M4.44466 15.5556H3.33355C2.74418 15.5556 2.17895 15.3215 1.7622 14.9047C1.34545 14.488 1.11133 13.9227 1.11133 13.3334V3.33337C1.11133 2.744 1.34545 2.17877 1.7622 1.76202C2.17895 1.34527 2.74418 1.11115 3.33355 1.11115H13.3335C13.9229 1.11115 14.4881 1.34527 14.9049 1.76202C15.3216 2.17877 15.5558 2.744 15.5558 3.33337V4.44448" stroke="#C6CBD2" stroke-linecap="round" stroke-linejoin="round"/>
</svg>
