<svg width="25" height="25" viewBox="0 0 25 25" fill="none" xmlns="http://www.w3.org/2000/svg">
<g clip-path="url(#clip0)">
<path d="M23.8021 16.401C23.7962 14.9075 22.8917 13.4822 21.0459 12.4165C16.9584 10.0567 9.8189 10.3526 5.09917 13.0775C2.54517 14.5521 1.22593 16.4356 1.1981 18.2277L1.19482 18.228V19.425L1.19805 19.4247C1.20483 20.9172 2.10938 22.3416 3.9542 23.4067C8.04155 25.7666 15.1812 25.4706 19.9008 22.7457C22.4892 21.2513 23.809 19.337 23.8019 17.5234L23.8048 17.5231V16.4007L23.8021 16.401Z" fill="url(#paint0_linear)"/>
<path d="M13.2822 23.7394C19.5134 22.9801 24.2165 19.5068 23.7869 15.9816C23.3574 12.4564 17.9578 10.2142 11.7266 10.9735C5.49545 11.7327 0.792318 15.206 1.22188 18.7312C1.65144 22.2565 7.05103 24.4987 13.2822 23.7394Z" fill="#E9E5F6"/>
<path d="M21.7983 5.95438C21.7936 4.72567 21.0494 3.55306 19.5308 2.67631C16.168 0.734802 10.2941 0.978308 6.41113 3.22015C4.30991 4.43329 3.22451 5.98285 3.20166 7.45731L3.19897 7.45751V17.5926L3.20166 17.5923C3.20728 18.8203 3.95142 19.9921 5.46924 20.8684C8.83198 22.8099 14.7059 22.5664 18.5889 20.3246C20.7183 19.0952 21.8042 17.5202 21.7984 16.0281L21.8008 16.0279V5.95419L21.7983 5.95438Z" fill="url(#paint1_linear)"/>
<path d="M18.5886 15.7375C14.7056 17.9794 8.83179 18.2229 5.46899 16.2814C3.95122 15.4051 3.20703 14.2332 3.20142 13.0052L3.19873 13.0055V14.6784L3.20142 14.6782C3.20703 15.9061 3.95117 17.078 5.46899 17.9543C8.83174 19.8958 14.7056 19.6523 18.5886 17.4104C20.7181 16.181 21.8039 14.606 21.7981 13.1139L21.8005 13.1137V11.4408L21.7981 11.441C21.804 12.9331 20.7181 14.508 18.5886 15.7375Z" fill="url(#paint2_linear)"/>
<path d="M19.5308 2.67629C16.168 0.734831 10.2941 0.978288 6.41113 3.22013C4.30991 4.43327 3.22451 5.98283 3.20166 7.45729L3.19897 7.45749V9.90524L3.20166 9.905C3.20728 11.133 3.95142 12.3048 5.46924 13.1811C8.83198 15.1226 14.7059 14.8791 18.5889 12.6373C20.7183 11.4078 21.8042 9.83288 21.7984 8.34074L21.8008 8.34054V5.95417L21.7984 5.95436C21.7936 4.7257 21.0494 3.55304 19.5308 2.67629Z" fill="url(#paint3_linear)"/>
<path d="M13.1442 11.9894C18.2707 11.3647 22.1401 8.50718 21.7867 5.60691C21.4333 2.70664 16.9909 0.861914 11.8644 1.48659C6.73789 2.11127 2.86852 4.96881 3.22193 7.86908C3.57534 10.7693 8.01769 12.6141 13.1442 11.9894Z" fill="#8B636F"/>
<path d="M18.1561 9.61995C14.5488 11.7026 9.0921 11.9288 5.96813 10.1252C2.84415 8.32151 3.23595 5.17107 6.84318 3.08845C10.4504 1.00579 15.9071 0.779616 19.0311 2.58323C22.1551 4.38684 21.7633 7.53728 18.1561 9.61995Z" fill="url(#paint4_linear)"/>
<path d="M12.4998 7.60361C14.0522 7.60361 15.3106 6.34516 15.3106 4.79277C15.3106 3.24039 14.0522 1.98193 12.4998 1.98193C10.9474 1.98193 9.68896 3.24039 9.68896 4.79277C9.68896 6.34516 10.9474 7.60361 12.4998 7.60361Z" fill="url(#paint5_radial)"/>
<path d="M12.4996 3.19179C12.4994 3.19179 12.4993 3.19179 12.4991 3.19179C12.3047 3.1915 12.1472 3.03408 12.1472 2.83964C12.1472 2.7642 12.1596 0.981244 13.2368 0.0820251C13.3862 -0.0427308 13.6085 -0.0227113 13.7332 0.126703C13.8579 0.276117 13.8379 0.498334 13.6885 0.623041C12.866 1.30961 12.8521 2.82485 12.8521 2.84008C12.8515 3.03437 12.6939 3.19179 12.4996 3.19179Z" fill="#236568"/>
</g>
<defs>
<linearGradient id="paint0_linear" x1="11.7393" y1="17.9116" x2="17.2386" y2="17.9116" gradientUnits="userSpaceOnUse">
<stop stop-color="#C5BAEB"/>
<stop offset="1" stop-color="#F2EFFA"/>
</linearGradient>
<linearGradient id="paint1_linear" x1="11.8741" y1="11.7724" x2="16.3985" y2="11.7724" gradientUnits="userSpaceOnUse">
<stop stop-color="#DEA861"/>
<stop offset="1" stop-color="#EBCBA0"/>
</linearGradient>
<linearGradient id="paint2_linear" x1="11.8739" y1="15.3529" x2="16.3983" y2="15.3529" gradientUnits="userSpaceOnUse">
<stop stop-color="#5D3645"/>
<stop offset="1" stop-color="#71525E"/>
</linearGradient>
<linearGradient id="paint3_linear" x1="11.8741" y1="7.92873" x2="16.3985" y2="7.92873" gradientUnits="userSpaceOnUse">
<stop stop-color="#5D3645"/>
<stop offset="1" stop-color="#71525E"/>
</linearGradient>
<linearGradient id="paint4_linear" x1="5.56119" y1="10.6354" x2="22.0913" y2="0.435917" gradientUnits="userSpaceOnUse">
<stop stop-color="#5D3645"/>
<stop offset="1" stop-color="#71525E"/>
</linearGradient>
<radialGradient id="paint5_radial" cx="0" cy="0" r="1" gradientUnits="userSpaceOnUse" gradientTransform="translate(13.8372 3.96357) scale(2.81083)">
<stop stop-color="#FF7A85"/>
<stop offset="1" stop-color="#FF4757"/>
</radialGradient>
<clipPath id="clip0">
<rect width="25" height="25" fill="white"/>
</clipPath>
</defs>
</svg>
