<svg width="14" height="20" viewBox="0 0 14 20" fill="none" xmlns="http://www.w3.org/2000/svg">
<path opacity="0.4" d="M0 4.447C0 1.996 2.03024 0 4.52453 0H9.48564C11.9748 0 14 1.99 14 4.437V15.553C14 18.005 11.9698 20 9.47445 20H4.51537C2.02515 20 0 18.01 0 15.563V14.623V4.447Z" fill="#C6CBD2"/>
<path d="M8.48217 12.1794C8.47988 11.8707 8.37015 11.6076 8.15132 11.3948C7.93249 11.182 7.56551 10.992 7.04583 10.8232C6.32656 10.6064 5.79982 10.3237 5.46873 9.97369C5.13764 9.62364 4.9694 9.17598 4.96855 8.63239C4.96653 8.07801 5.12401 7.62399 5.44413 7.2689C5.76425 6.91381 6.20574 6.6993 6.77002 6.6285L6.76451 5.75463C6.76439 5.69214 6.78904 5.63215 6.83308 5.58781C6.87711 5.54348 6.93692 5.5184 6.99941 5.51808L7.28511 5.51504C7.41406 5.51614 7.52132 5.61788 7.52165 5.74995L7.52548 6.62837C8.09272 6.70353 8.53658 6.93747 8.85228 7.33616C9.13711 7.69239 9.29382 8.16425 9.3284 8.75653C9.33546 8.87039 9.24021 8.96711 9.12348 8.96794L8.6029 8.96953C8.55007 8.96908 8.49937 8.94868 8.46095 8.9124C8.42254 8.87613 8.39927 8.82668 8.39579 8.77396C8.3653 8.38757 8.25251 8.07682 8.05912 7.83717C7.83173 7.5565 7.52605 7.41763 7.14209 7.42056C6.73966 7.42444 6.43228 7.52812 6.22281 7.73785C6.01335 7.94757 5.90565 8.2389 5.90908 8.60753C5.91013 8.95459 6.02416 9.22699 6.24948 9.42928C6.47479 9.63158 6.84657 9.81558 7.36169 9.98272C7.87538 10.1467 8.28096 10.3303 8.56931 10.53C8.85766 10.7298 9.07431 10.9625 9.2116 11.228C9.34888 11.4934 9.4202 11.8044 9.42245 12.1622C9.42398 12.7319 9.25857 13.1934 8.91713 13.5432C8.57568 13.893 8.09754 14.1017 7.47814 14.1676L7.48212 14.8986C7.48102 15.0276 7.37928 15.1349 7.24722 15.1352L6.96776 15.1354C6.83881 15.1343 6.73155 15.0325 6.73121 14.9005L6.72722 14.1694C6.09789 14.1153 5.60751 13.8952 5.24698 13.5058C4.92955 13.1608 4.74933 12.7036 4.71089 12.1357C4.70239 12.0187 4.79908 11.9251 4.91437 11.9212L5.44119 11.9167C5.54713 11.9171 5.63979 11.9953 5.64567 12.0984C5.67642 12.4771 5.80024 12.779 6.01283 12.9947C6.2611 13.2469 6.60874 13.3702 7.06173 13.3695C7.5025 13.3669 7.84991 13.2599 8.10253 13.0454C8.35802 12.8372 8.48417 12.5449 8.48217 12.1794Z" fill="#C6CBD2"/>
<path d="M7.47743 14.3795L6.72411 14.1709L6.76928 6.65153L6.76979 6.39819L7.52548 6.62839L7.47527 14.1614L7.47743 14.3795Z" fill="#C6CBD2"/>
</svg>
