<svg width="533" height="162" viewBox="0 0 533 162" fill="none" xmlns="http://www.w3.org/2000/svg">
<path fill-rule="evenodd" clip-rule="evenodd" d="M170.068 159.656C169.075 147.973 160.908 131.137 159.083 115.037C171.381 103.546 158.09 70.0334 150.756 69.6813C143.357 68.337 136.952 66.9606 125.134 66.5445C110.53 66.0324 97.3354 67.7929 92.4353 68.497C74.1482 77.5233 64.2199 130.592 76.2619 141.059C78.5358 143.044 82.2188 145.028 86.7026 146.884C86.3182 151.366 86.062 155.847 86.062 160.008L170.068 159.656Z" fill="#2E186A"/>
<path fill-rule="evenodd" clip-rule="evenodd" d="M111.523 68.401L114.181 52.5251L134.038 59.9829L134.775 71.2817C132.084 90.9666 110.947 71.8899 111.523 68.401Z" fill="white"/>
<path fill-rule="evenodd" clip-rule="evenodd" d="M113.234 52.3666L110.575 68.2425C110.162 70.7441 116.008 76.6765 121.497 79.3921C124.771 81.0116 127.797 81.4965 130.277 80.5203C133.187 79.3751 135.052 76.3454 135.726 71.4117C135.735 71.3479 135.737 71.2835 135.733 71.2193L134.996 59.9205C134.972 59.544 134.729 59.2168 134.376 59.0841L114.519 51.6262C113.953 51.4136 113.333 51.7704 113.234 52.3666ZM114.936 53.8342L133.119 60.6638L133.809 71.2449L133.822 71.1518C132.733 79.1257 128.588 80.7568 122.35 77.671C119.863 76.4409 117.268 74.4971 115.219 72.4174L115.031 72.2246C113.396 70.5257 112.403 68.9702 112.471 68.5575L114.936 53.8342Z" fill="#2E186A"/>
<path fill-rule="evenodd" clip-rule="evenodd" d="M139.131 22.6297C139.131 22.6297 123.918 32.168 131.252 41.1623C131.252 41.1623 134.551 44.9392 137.241 44.203C137.241 44.203 135.256 41.0022 137.562 39.3698C137.562 39.3698 138.234 48.9402 146.081 47.0197C146.081 47.0197 143.198 42.7627 143.999 37.7054C145.632 27.0788 143.198 20.7092 139.131 22.6297Z" fill="#2E186A"/>
<path fill-rule="evenodd" clip-rule="evenodd" d="M107.584 37.7054C107.584 37.7054 104.669 19.0447 123.565 15.8119C125.327 15.5239 137.401 13.6994 139.61 23.7179C141.084 30.4076 141.372 37.6734 141.18 43.3068C141.18 43.3388 140.988 53.9654 136.792 59.8549C132.597 65.7444 123.277 65.2002 118.377 62.2875C113.445 59.3748 112.548 57.8704 111.171 54.4135C109.794 50.9567 107.584 37.7374 107.584 37.7374V37.7054Z" fill="white"/>
<path fill-rule="evenodd" clip-rule="evenodd" d="M126.467 14.5573C125.292 14.6031 124.332 14.7135 123.41 14.8643C115.488 16.2196 110.559 20.2758 108.132 26.1551C106.639 29.7696 106.267 33.5439 106.528 36.8562L106.554 37.1572L106.581 37.4294C106.587 37.4842 106.593 37.5353 106.598 37.5826L106.624 37.7857L106.629 37.8431L106.649 37.9717L106.873 39.274C106.948 39.7031 107.028 40.1601 107.114 40.6399L107.337 41.8729C107.599 43.3088 107.869 44.7316 108.14 46.0946L108.257 46.675C108.484 47.8038 108.706 48.8527 108.92 49.807L109.067 50.4525C109.507 52.3592 109.9 53.7892 110.244 54.6813L110.278 54.7687C111.907 58.8572 113.185 60.337 117.888 63.1142C120.588 64.7189 124.357 65.5722 127.914 65.33C131.979 65.0533 135.439 63.4092 137.575 60.4118C139.512 57.6926 140.77 53.9176 141.507 49.5438C141.741 48.1529 141.906 46.7899 142.014 45.5006L142.05 45.0499C142.102 44.3459 142.132 43.7109 142.139 43.413L142.14 43.3395C142.365 36.7404 141.906 29.8831 140.635 23.9082L140.549 23.5112C139.483 18.6814 136.239 15.9598 131.623 14.9614C129.97 14.6041 128.23 14.4888 126.467 14.5573ZM131.216 16.8385C135.102 17.6788 137.718 19.843 138.638 23.7745L138.672 23.9243C139.97 29.8179 140.445 36.6777 140.22 43.274L140.217 43.4265C140.209 43.7099 140.178 44.328 140.126 45.0045C140.024 46.3411 139.857 47.7684 139.612 49.2248C138.919 53.3376 137.744 56.8627 136.009 59.2979C134.239 61.7838 131.313 63.1736 127.783 63.414C124.609 63.6301 121.228 62.8649 118.868 61.4622L118.56 61.2793C114.479 58.8416 113.498 57.6601 112.064 54.0583C111.737 53.2374 111.322 51.7134 110.852 49.6404L110.68 48.8645C110.505 48.0675 110.325 47.2081 110.14 46.295C109.79 44.5625 109.441 42.7162 109.106 40.8594L108.842 39.38L108.543 37.6465L108.54 37.6064L108.512 37.4L108.491 37.2174C108.48 37.1202 108.47 37.0142 108.46 36.8997C108.19 33.8174 108.519 30.2506 109.908 26.8878C112.087 21.6096 116.474 17.9993 123.727 16.7584L124.067 16.7052C124.81 16.5944 125.601 16.513 126.542 16.4764C128.154 16.4136 129.737 16.5185 131.216 16.8385Z" fill="#2E186A"/>
<path fill-rule="evenodd" clip-rule="evenodd" d="M133.206 38.205C133.708 38.1025 134.198 38.4104 134.327 38.8984L134.34 38.9534L136.102 47.5635C136.22 48.1403 135.796 48.6813 135.217 48.7145L135.16 48.7161H131.926C131.395 48.7161 130.965 48.2862 130.965 47.7559C130.965 47.2445 131.365 46.8265 131.869 46.7973L131.926 46.7956H133.983L132.458 39.3381C132.355 38.8371 132.663 38.3474 133.151 38.2179L133.206 38.205Z" fill="#2E186A"/>
<path fill-rule="evenodd" clip-rule="evenodd" d="M138.307 38.4269C138.315 37.6137 137.891 36.9503 137.361 36.9451C136.83 36.9399 136.393 37.5949 136.386 38.4081C136.378 39.2212 136.801 39.8846 137.332 39.8898C137.863 39.895 138.299 39.24 138.307 38.4269Z" fill="#2E186A"/>
<path fill-rule="evenodd" clip-rule="evenodd" d="M129.203 38.6643C129.363 37.867 129.071 37.1361 128.551 37.0319C128.03 36.9276 127.479 37.4894 127.319 38.2868C127.159 39.0841 127.451 39.8149 127.971 39.9192C128.492 40.0235 129.043 39.4616 129.203 38.6643Z" fill="#2E186A"/>
<path fill-rule="evenodd" clip-rule="evenodd" d="M123.564 31.1502C124.619 30.3389 125.928 29.9143 127.457 30.0941C127.984 30.156 128.361 30.6332 128.299 31.1599C128.237 31.6866 127.759 32.0634 127.232 32.0014C126.235 31.8841 125.415 32.1501 124.736 32.6722C124.535 32.8268 124.363 32.9924 124.222 33.1556L124.157 33.2335C124.147 33.2458 124.138 33.2576 124.129 33.269L124.084 33.3293C123.796 33.7747 123.202 33.9025 122.756 33.6147C122.31 33.3269 122.182 32.7325 122.47 32.287L122.522 32.2105C122.582 32.1266 122.663 32.0212 122.768 31.9001C122.99 31.6429 123.255 31.388 123.564 31.1502Z" fill="#2E186A"/>
<path fill-rule="evenodd" clip-rule="evenodd" d="M136.14 29.1595C136.9 28.9362 137.673 28.819 138.425 28.869C139.546 28.9436 140.504 29.3917 141.157 30.2916C141.469 30.7208 141.374 31.3213 140.944 31.6328C140.531 31.9323 139.96 31.8556 139.64 31.4677L139.602 31.4197C139.315 31.0243 138.888 30.8245 138.297 30.7852C137.803 30.7523 137.242 30.8373 136.682 31.0021C136.554 31.0395 136.434 31.0789 136.324 31.1186L136.18 31.1725L136.067 31.2189C135.583 31.4369 135.014 31.2217 134.796 30.7383C134.578 30.2549 134.793 29.6862 135.277 29.4682L135.378 29.4244C135.562 29.3476 135.822 29.2529 136.14 29.1595Z" fill="#2E186A"/>
<path fill-rule="evenodd" clip-rule="evenodd" d="M122.413 23.7819C122.413 23.7819 129.555 48.8122 112.901 51.3728C112.901 51.3728 103.197 53.1012 100.987 49.6764C100.987 49.6764 108.001 45.9314 107.136 41.9304C107.136 41.9304 99.2256 50.6046 92.3398 44.3631C92.3398 44.3631 103.805 42.4426 102.813 32.136C102.076 24.7102 119.851 17.7644 122.413 23.7819Z" fill="#2E186A"/>
<path fill-rule="evenodd" clip-rule="evenodd" d="M91.9558 27.3028L102.108 25.7664C103.165 18.9487 107.136 9.15429 121.132 7.55389C143.006 5.02526 143.679 26.2785 143.679 26.2785L92.9807 33.8324C91.1872 34.1205 89.4898 32.8722 89.2015 31.0477C88.9133 29.2553 90.1623 27.5909 91.9558 27.3028Z" fill="#EE6F56"/>
<path fill-rule="evenodd" clip-rule="evenodd" d="M126.135 49.0809C126.606 48.8806 127.148 49.0846 127.372 49.537L127.41 49.6157L127.418 49.6324C127.451 49.6956 127.494 49.7691 127.547 49.8505C127.705 50.0923 127.91 50.3372 128.163 50.5666C129.107 51.4192 130.442 51.8331 132.323 51.5439C132.847 51.4633 133.338 51.8229 133.418 52.347C133.499 52.8712 133.139 53.3615 132.615 53.4421C130.156 53.8201 128.242 53.2268 126.875 51.9911C126.492 51.6454 126.182 51.2742 125.938 50.8999C125.785 50.6654 125.684 50.4722 125.628 50.3405C125.42 49.8526 125.647 49.2886 126.135 49.0809Z" fill="#2E186A"/>
<path fill-rule="evenodd" clip-rule="evenodd" d="M176.057 89.2062V78.2275C176.057 73.7464 172.438 70.1295 167.954 70.1295H164.783C164.783 81.2362 155.784 90.2625 144.639 90.2625C133.494 90.2625 124.494 81.2682 124.494 70.1295H121.323C116.84 70.1295 113.221 73.7464 113.221 78.2275V136.706C113.221 141.187 116.84 144.804 121.323 144.804H167.922C172.406 144.804 176.025 141.187 176.025 136.706V129.44C187.138 129.44 196.17 120.446 196.17 109.307C196.202 98.2004 187.17 89.2062 176.057 89.2062Z" fill="#FEBA91"/>
<path fill-rule="evenodd" clip-rule="evenodd" d="M170.516 142.051C170.484 141.923 163.438 133.697 163.214 133.889C162.989 134.081 153.35 138.37 153.125 138.722C152.901 139.043 152.549 140.995 153.51 142.787C154.47 144.58 155.559 148.709 159.915 149.029C164.271 149.381 170.516 142.051 170.516 142.051Z" fill="white"/>
<path fill-rule="evenodd" clip-rule="evenodd" d="M157.672 135.81C157.672 135.81 156.84 130.144 158.153 128.8C159.466 127.456 166.8 140.003 169.33 140.867" fill="white"/>
<path fill-rule="evenodd" clip-rule="evenodd" d="M157.465 128.129C158.076 127.504 158.822 127.656 159.551 128.175C159.956 128.463 160.414 128.906 160.958 129.517L161.187 129.778C161.838 130.528 162.394 131.233 163.649 132.894L165.167 134.909C167.609 138.135 168.968 139.697 169.613 139.948L169.641 139.958C170.143 140.13 170.411 140.676 170.239 141.178C170.068 141.679 169.521 141.947 169.019 141.776L168.932 141.744C167.776 141.3 166.489 139.84 163.732 136.196L161.671 133.465C160.752 132.256 160.272 131.655 159.737 131.039L159.616 130.899C159.264 130.498 158.961 130.185 158.715 129.965L158.628 129.89L158.626 129.896C158.481 130.356 158.385 131.108 158.374 132.044L158.373 132.167C158.37 132.938 158.417 133.773 158.498 134.606C158.515 134.776 158.532 134.938 158.55 135.091L158.599 135.494C158.609 135.576 158.618 135.635 158.623 135.67C158.7 136.195 158.337 136.683 157.812 136.76C157.287 136.837 156.799 136.474 156.722 135.949L156.678 135.625L156.641 135.31C156.622 135.146 156.603 134.973 156.586 134.793C156.499 133.899 156.448 133.003 156.451 132.159C156.46 130.254 156.719 128.893 157.465 128.129Z" fill="#2E186A"/>
<path fill-rule="evenodd" clip-rule="evenodd" d="M153.765 136.802C153.765 136.802 152.004 132.673 154.342 130.688C156.648 128.704 162.38 140.003 164.879 141.443" fill="white"/>
<path fill-rule="evenodd" clip-rule="evenodd" d="M153.715 129.961C154.769 129.054 156.008 129.476 157.337 130.691C158.169 131.453 159.072 132.535 160.25 134.129L160.659 134.686C160.774 134.844 160.894 135.01 161.022 135.187L162.335 137.012C164.23 139.629 164.784 140.28 165.359 140.611C165.819 140.876 165.976 141.464 165.711 141.923C165.446 142.382 164.858 142.54 164.399 142.275L164.238 142.179C163.358 141.636 162.78 140.924 160.316 137.498L159.279 136.055C159.16 135.891 159.049 135.737 158.939 135.588L158.713 135.281C157.6 133.776 156.759 132.766 156.04 132.108C155.642 131.744 155.311 131.521 155.077 131.441L154.993 131.413C154.983 131.41 154.978 131.41 154.974 131.413L154.964 131.42C154.446 131.86 154.171 132.489 154.105 133.302C154.048 134.014 154.155 134.808 154.374 135.598C154.424 135.779 154.477 135.949 154.53 136.104L154.6 136.3L154.65 136.425C154.858 136.913 154.631 137.477 154.143 137.685C153.654 137.893 153.09 137.666 152.882 137.179C152.787 136.955 152.653 136.586 152.521 136.109C152.248 135.121 152.112 134.115 152.19 133.147C152.294 131.861 152.777 130.758 153.715 129.961Z" fill="#2E186A"/>
<path fill-rule="evenodd" clip-rule="evenodd" d="M152.741 141.539C152.741 141.539 149.795 134.145 151.844 132.577C153.894 131.008 157.257 140.611 161.26 142.819" fill="white"/>
<path fill-rule="evenodd" clip-rule="evenodd" d="M151.26 131.815C151.888 131.334 152.635 131.336 153.329 131.728C153.805 131.997 154.268 132.446 154.783 133.089L154.925 133.27C155.26 133.704 155.62 134.22 156.067 134.899L157.627 137.308L157.835 137.622C159.411 139.987 160.585 141.35 161.724 141.979C162.189 142.235 162.358 142.819 162.101 143.284C161.845 143.748 161.26 143.916 160.796 143.66C159.269 142.818 157.93 141.249 156.134 138.533L155.683 137.843C155.276 137.213 154.697 136.314 154.556 136.098L154.385 135.838C153.941 135.169 153.596 134.681 153.282 134.289C152.93 133.849 152.639 133.561 152.425 133.425L152.37 133.393L152.352 133.414C152.032 133.806 151.976 134.965 152.285 136.604L152.308 136.728C152.442 137.409 152.627 138.137 152.851 138.887C152.994 139.368 153.146 139.835 153.3 140.276L153.392 140.537C153.431 140.644 153.468 140.746 153.503 140.84L153.634 141.184C153.83 141.677 153.589 142.235 153.096 142.431C152.603 142.627 152.045 142.387 151.848 141.894L151.773 141.7C151.727 141.579 151.677 141.444 151.624 141.297L151.583 141.184C151.387 140.638 151.192 140.048 151.009 139.436C150.769 138.63 150.569 137.844 150.423 137.098C149.926 134.565 150.048 132.742 151.26 131.815Z" fill="#2E186A"/>
<path fill-rule="evenodd" clip-rule="evenodd" d="M168.818 140.579C169.138 138.979 168.978 137.314 168.338 135.842C167.601 134.113 166.736 131.809 166.672 130.304C166.544 127.712 170.772 128.928 170.964 130.528C171.156 132.129 171.957 132.033 173.814 133.697C175.672 135.362 175.319 141.859 175.319 141.859C175.319 141.859 176.953 145.22 171.7 149.221C166.448 153.222 160.811 150.117 160.811 150.117C160.811 150.117 150.627 146.372 150.627 139.043C150.627 131.713 153.317 142.403 158.409 145.412" fill="white"/>
<path fill-rule="evenodd" clip-rule="evenodd" d="M165.712 130.352C165.619 128.465 167.086 127.598 168.858 127.897C170.368 128.152 171.765 129.142 171.918 130.414C171.974 130.884 172.06 131.066 172.317 131.297L172.364 131.338C172.352 131.328 173.788 132.384 174.455 132.982C175.394 133.823 175.89 135.368 176.138 137.474C176.288 138.746 176.327 140.073 176.3 141.275L176.291 141.611L176.288 141.698L176.298 141.727C176.314 141.775 176.33 141.826 176.345 141.881L176.369 141.966C176.609 142.879 176.592 143.974 176.162 145.184C175.587 146.807 174.332 148.423 172.283 149.985C171.924 150.258 171.557 150.506 171.182 150.728C168.138 152.537 164.904 152.59 161.905 151.604C161.274 151.396 160.785 151.185 160.466 151.021L160.412 150.993L160.204 150.911L160.002 150.828C159.638 150.675 159.233 150.493 158.799 150.281C157.558 149.675 156.317 148.951 155.154 148.105C151.747 145.627 149.666 142.614 149.666 139.043C149.666 137.615 149.756 136.779 150.02 136.269C150.291 135.746 150.821 135.443 151.426 135.603C151.781 135.697 152.049 135.913 152.334 136.243C152.763 136.74 154.805 140.095 155.288 140.8C156.525 142.607 157.695 143.875 158.898 144.585C159.355 144.855 159.506 145.444 159.236 145.901C158.966 146.357 158.377 146.509 157.92 146.239C156.471 145.382 155.167 143.993 153.831 142.072L153.702 141.884C153.358 141.382 152.493 139.986 151.803 138.896L151.592 138.564L151.591 138.612C151.59 138.713 151.588 138.819 151.588 138.93L151.588 139.043C151.588 141.884 153.325 144.399 156.285 146.552C157.349 147.327 158.495 147.996 159.641 148.555C159.985 148.722 160.307 148.869 160.601 148.995L160.745 149.056C160.831 149.093 160.91 149.125 160.98 149.153L161.143 149.216C161.173 149.227 161.203 149.24 161.232 149.254L161.348 149.314C161.402 149.341 161.478 149.377 161.575 149.421C161.845 149.542 162.157 149.665 162.506 149.779C165.023 150.607 167.7 150.564 170.2 149.078C170.511 148.893 170.817 148.686 171.118 148.457C172.885 147.112 173.908 145.793 174.351 144.543C174.645 143.713 174.656 143.01 174.51 142.455L174.49 142.383C174.471 142.32 174.458 142.284 174.455 142.279C174.384 142.132 174.351 141.97 174.36 141.807L174.369 141.598C174.37 141.565 174.371 141.529 174.372 141.491C174.409 140.305 174.378 138.959 174.229 137.698C174.034 136.034 173.65 134.84 173.173 134.412L173.077 134.328C172.451 133.788 171.177 132.85 171.114 132.797C170.453 132.231 170.127 131.616 170.01 130.643C169.981 130.4 169.303 129.92 168.538 129.791C167.836 129.672 167.609 129.806 167.632 130.264C167.678 131.339 168.22 133.068 169.077 135.123L169.219 135.459C169.934 137.103 170.12 138.966 169.76 140.767C169.656 141.287 169.15 141.624 168.629 141.52C168.109 141.416 167.772 140.911 167.876 140.391C168.15 139.02 168.024 137.61 167.512 136.357L167.29 135.829C166.354 133.583 165.77 131.71 165.712 130.352Z" fill="#2E186A"/>
<path fill-rule="evenodd" clip-rule="evenodd" d="M113.766 142.051C113.798 141.923 120.843 133.697 121.068 133.889C121.292 134.081 130.932 138.37 131.156 138.722C131.38 139.075 131.733 140.995 130.772 142.787C129.811 144.58 128.722 148.709 124.366 149.029C120.011 149.381 113.766 142.051 113.766 142.051Z" fill="white"/>
<path fill-rule="evenodd" clip-rule="evenodd" d="M126.609 135.81C126.609 135.81 127.442 130.144 126.128 128.8C124.815 127.456 117.481 140.003 114.951 140.867" fill="white"/>
<path fill-rule="evenodd" clip-rule="evenodd" d="M124.73 128.175C125.459 127.656 126.205 127.504 126.816 128.129C127.562 128.893 127.822 130.254 127.83 132.159C127.834 133.003 127.783 133.899 127.695 134.793L127.659 135.143C127.653 135.2 127.647 135.255 127.641 135.31L127.581 135.797C127.572 135.863 127.565 135.914 127.56 135.949C127.482 136.474 126.994 136.837 126.469 136.76C125.944 136.683 125.581 136.195 125.658 135.67L125.682 135.494L125.696 135.385C125.726 135.151 125.755 134.889 125.783 134.606C125.864 133.773 125.912 132.938 125.908 132.167C125.904 131.221 125.815 130.452 125.676 129.967L125.653 129.89L125.627 129.912C125.39 130.116 125.096 130.415 124.753 130.801L124.464 131.131C123.867 131.825 123.308 132.538 122.085 134.159L120.55 136.196C117.722 139.932 116.442 141.373 115.262 141.776C114.76 141.947 114.214 141.679 114.042 141.178C113.877 140.694 114.12 140.169 114.588 139.978L114.641 139.958C115.273 139.742 116.636 138.183 119.114 134.909L120.468 133.111C121.84 131.293 122.415 130.56 123.095 129.778L123.221 129.633C123.809 128.962 124.3 128.481 124.73 128.175Z" fill="#2E186A"/>
<path fill-rule="evenodd" clip-rule="evenodd" d="M130.516 136.802C130.516 136.802 132.277 132.673 129.939 130.688C127.633 128.704 121.9 140.003 119.402 141.443" fill="white"/>
<path fill-rule="evenodd" clip-rule="evenodd" d="M126.944 130.691C128.273 129.476 129.512 129.054 130.561 129.957C131.505 130.758 131.987 131.861 132.091 133.147C132.17 134.115 132.033 135.121 131.76 136.109C131.628 136.586 131.495 136.955 131.399 137.179C131.191 137.666 130.627 137.893 130.139 137.685C129.668 137.485 129.44 136.953 129.611 136.478L129.681 136.3C129.69 136.275 129.7 136.248 129.711 136.218C129.778 136.033 129.845 135.825 129.908 135.598C130.126 134.808 130.234 134.014 130.176 133.302C130.113 132.526 129.86 131.918 129.382 131.478L129.305 131.411C129.297 131.407 129.284 131.414 129.204 131.441C128.971 131.521 128.64 131.744 128.242 132.108C127.498 132.788 126.625 133.844 125.456 135.433L125.002 136.056L123.387 138.299C121.274 141.219 120.784 141.755 119.882 142.275C119.423 142.54 118.835 142.382 118.57 141.923C118.305 141.464 118.463 140.876 118.922 140.611L118.968 140.584C119.566 140.22 120.18 139.464 122.344 136.461L123.259 135.187C123.387 135.01 123.507 134.844 123.622 134.686L123.791 134.454C125.089 132.681 126.056 131.503 126.944 130.691Z" fill="#2E186A"/>
<path fill-rule="evenodd" clip-rule="evenodd" d="M131.541 141.539C131.541 141.539 134.487 134.145 132.437 132.577C130.388 131.008 127.025 140.611 123.021 142.819" fill="white"/>
<path fill-rule="evenodd" clip-rule="evenodd" d="M130.953 131.728C131.646 131.336 132.394 131.334 133.021 131.815C134.234 132.742 134.356 134.565 133.859 137.098C133.713 137.844 133.513 138.63 133.272 139.436C133.116 139.961 132.95 140.469 132.782 140.947L132.699 141.184C132.644 141.337 132.592 141.479 132.544 141.607L132.433 141.894C132.237 142.387 131.678 142.627 131.185 142.431C130.692 142.235 130.452 141.677 130.648 141.184L130.712 141.018L130.815 140.743C130.839 140.677 130.864 140.609 130.889 140.537C131.074 140.022 131.259 139.465 131.431 138.887C131.654 138.137 131.84 137.409 131.973 136.728L132.022 136.47C132.302 134.901 132.241 133.795 131.93 133.414L131.911 133.393L131.898 133.4C131.695 133.515 131.413 133.784 131.069 134.203L130.999 134.289L130.88 134.441C130.598 134.806 130.285 135.253 129.897 135.838L129.578 136.326C129.236 136.855 128.504 137.992 128.261 138.362L128.036 138.701C126.295 141.314 124.98 142.836 123.486 143.66C123.021 143.916 122.437 143.748 122.18 143.284C121.924 142.819 122.093 142.235 122.557 141.979C123.697 141.35 124.87 139.987 126.447 137.622L126.796 137.091C127.178 136.502 127.946 135.309 128.118 135.047L128.309 134.756C128.775 134.053 129.146 133.53 129.499 133.089C130.014 132.446 130.476 131.997 130.953 131.728Z" fill="#2E186A"/>
<path fill-rule="evenodd" clip-rule="evenodd" d="M115.495 140.579C115.175 138.979 115.335 137.314 115.976 135.842C116.712 134.113 117.577 131.809 117.641 130.304C117.769 127.712 113.542 128.928 113.35 130.528C113.158 132.129 112.357 132.033 110.499 133.697C108.642 135.362 108.994 141.859 108.994 141.859C108.994 141.859 107.361 145.22 112.613 149.221C117.865 153.222 123.502 150.117 123.502 150.117C123.502 150.117 133.687 146.372 133.687 139.043C133.687 131.713 130.996 142.403 125.904 145.412" fill="white"/>
<path fill-rule="evenodd" clip-rule="evenodd" d="M115.455 127.897C117.227 127.598 118.693 128.465 118.601 130.345C118.542 131.709 117.959 133.583 117.021 135.835L116.856 136.225C116.299 137.506 116.153 138.97 116.437 140.391C116.541 140.911 116.204 141.416 115.683 141.52C115.163 141.624 114.657 141.287 114.553 140.767C114.204 139.024 114.367 137.224 115.024 135.625L115.233 135.129C116.092 133.068 116.635 131.339 116.681 130.257C116.703 129.806 116.477 129.672 115.775 129.791C115.009 129.92 114.332 130.4 114.303 130.643C114.191 131.579 113.885 132.183 113.273 132.731L113.198 132.797C113.133 132.853 111.72 133.892 111.14 134.412C110.663 134.84 110.279 136.034 110.083 137.698C109.946 138.862 109.909 140.098 109.933 141.214L109.944 141.598C109.947 141.696 109.951 141.767 109.953 141.807C109.96 141.947 109.937 142.086 109.886 142.215L109.858 142.279C109.854 142.286 109.831 142.347 109.803 142.455C109.656 143.01 109.667 143.713 109.962 144.543C110.405 145.793 111.428 147.112 113.195 148.457C113.496 148.686 113.801 148.893 114.112 149.078C116.613 150.564 119.29 150.607 121.807 149.779C122.106 149.681 122.378 149.577 122.619 149.473L122.738 149.421C122.873 149.36 122.968 149.313 123.019 149.286L123.038 149.276C123.066 149.261 123.095 149.247 123.125 149.234L123.265 149.179C123.33 149.154 123.403 149.125 123.484 149.091L123.568 149.057C123.899 148.917 124.271 148.75 124.671 148.555C125.818 147.996 126.964 147.327 128.028 146.552C130.987 144.399 132.725 141.884 132.725 139.043L132.725 138.893L132.72 138.564L132.151 139.464C131.59 140.355 130.995 141.309 130.682 141.778L130.611 141.884C129.229 143.903 127.889 145.354 126.392 146.239C125.936 146.509 125.346 146.357 125.076 145.901C124.806 145.444 124.958 144.855 125.415 144.586C126.618 143.875 127.788 142.607 129.025 140.8L129.087 140.707C129.662 139.841 131.567 136.721 131.979 136.243C132.264 135.913 132.532 135.697 132.887 135.603C133.492 135.443 134.021 135.746 134.293 136.269C134.557 136.779 134.647 137.615 134.647 139.043C134.647 142.614 132.565 145.627 129.159 148.105C127.996 148.951 126.755 149.675 125.514 150.281C125.079 150.493 124.675 150.675 124.311 150.828L124.051 150.934L123.901 150.993L123.847 151.021L123.71 151.089C123.419 151.23 123.022 151.396 122.532 151.562L122.407 151.604C119.409 152.59 116.175 152.537 113.13 150.728C112.756 150.506 112.389 150.258 112.03 149.985C109.98 148.423 108.726 146.807 108.15 145.184C107.721 143.974 107.704 142.879 107.944 141.966C107.96 141.908 107.975 141.853 107.991 141.802L108.025 141.698L108.02 141.55C107.981 140.277 108.014 138.844 108.175 137.474C108.423 135.368 108.919 133.823 109.857 132.982L110.004 132.854C110.714 132.245 111.96 131.328 111.949 131.338C112.243 131.086 112.335 130.912 112.395 130.414C112.548 129.142 113.945 128.152 115.455 127.897Z" fill="#2E186A"/>
<path fill-rule="evenodd" clip-rule="evenodd" d="M283.668 68.4651L262.275 65.0722L259.969 57.8064C263.972 55.2778 277.423 56.4621 287.928 60.335L283.668 68.4651Z" fill="#2E186A"/>
<path fill-rule="evenodd" clip-rule="evenodd" d="M318.769 108.891L302.852 71.6978C301.827 69.3933 299.681 67.6969 297.087 66.9927C295.774 66.3845 294.333 66.0004 292.827 65.8724L287.415 65.4243L287.895 60.335C287.895 60.335 287.159 62.1595 281.202 63.2798C273.163 64.7841 259.936 57.8064 259.936 57.8064C259.936 57.8064 259.936 64.7201 259.936 65.6804L251.737 65.4563C248.214 65.3603 241.393 65.0722 237.422 72.9141L218.174 121.214C214.747 127.456 216.54 136.674 222.209 141.443L233.45 147.653L232.393 160.136L317.456 159.848L316.975 148.773C342.853 132.737 318.769 108.891 318.769 108.891Z" fill="#5D21D1"/>
<path fill-rule="evenodd" clip-rule="evenodd" d="M227.255 120.85C231.286 117.963 235.194 116.72 238.915 116.88C241.849 117.005 244.49 117.987 246.798 119.54C247.663 120.122 248.422 120.746 249.07 121.372L249.222 121.52C249.536 121.832 249.76 122.081 249.891 122.242C250.225 122.654 250.161 123.259 249.749 123.593C249.352 123.914 248.778 123.867 248.437 123.497L248.306 123.345C248.288 123.324 248.267 123.301 248.244 123.276C248.102 123.12 247.932 122.944 247.735 122.753C247.164 122.202 246.492 121.649 245.725 121.133C243.693 119.766 241.384 118.908 238.833 118.798C235.554 118.658 232.066 119.768 228.374 122.411C227.943 122.72 227.342 122.621 227.033 122.19C226.724 121.758 226.823 121.159 227.255 120.85Z" fill="white"/>
<path fill-rule="evenodd" clip-rule="evenodd" d="M229.549 115.881C233.788 113.676 237.543 112.948 240.823 113.496C243.48 113.939 245.681 115.187 247.451 116.981C248.212 117.751 248.844 118.575 249.358 119.404C249.542 119.702 249.7 119.983 249.833 120.241L249.9 120.373C249.95 120.474 249.988 120.555 250.022 120.632C250.238 121.117 250.019 121.684 249.534 121.9C249.049 122.115 248.482 121.897 248.266 121.412C248.159 121.172 247.995 120.852 247.724 120.415C247.282 119.702 246.737 118.992 246.083 118.329C244.582 116.808 242.737 115.762 240.507 115.39C237.663 114.915 234.324 115.562 230.436 117.585C229.965 117.83 229.385 117.647 229.14 117.176C228.895 116.706 229.078 116.126 229.549 115.881Z" fill="white"/>
<path fill-rule="evenodd" clip-rule="evenodd" d="M309.342 114.46C313.162 113.919 317.314 114.951 321.757 117.815C322.203 118.102 322.331 118.696 322.044 119.142C321.756 119.588 321.161 119.716 320.716 119.429C316.646 116.806 312.954 115.888 309.612 116.361C306.974 116.735 304.649 117.959 302.643 119.776C301.78 120.559 301.035 121.398 300.413 122.237C300.227 122.487 300.065 122.721 299.926 122.934L299.797 123.134C299.743 123.222 299.706 123.284 299.688 123.316C299.428 123.779 298.843 123.944 298.38 123.684C297.917 123.425 297.752 122.84 298.012 122.377L298.071 122.274C298.232 122 298.499 121.592 298.869 121.093C299.563 120.158 300.39 119.225 301.353 118.353C303.625 116.295 306.289 114.892 309.342 114.46Z" fill="white"/>
<path fill-rule="evenodd" clip-rule="evenodd" d="M300.164 115.323C303.818 111.679 308.976 109.949 315.771 111.179C316.293 111.274 316.639 111.773 316.545 112.295C316.45 112.817 315.95 113.163 315.428 113.069C309.268 111.953 304.74 113.473 301.521 116.683C300.649 117.552 299.944 118.485 299.393 119.415C299.229 119.691 299.09 119.95 298.974 120.185L298.919 120.3C298.873 120.396 298.839 120.471 298.816 120.526L298.785 120.6C298.594 121.095 298.037 121.341 297.542 121.15C297.047 120.958 296.801 120.402 296.993 119.908L297.04 119.789C297.173 119.472 297.402 119.006 297.74 118.436C298.369 117.374 299.171 116.314 300.164 115.323Z" fill="white"/>
<path fill-rule="evenodd" clip-rule="evenodd" d="M262.85 64.7842V43.3068L281.745 54.6696L281.297 66.2245L262.85 64.7842Z" fill="white"/>
<path fill-rule="evenodd" clip-rule="evenodd" d="M261.889 43.3068V64.7842C261.889 65.2855 262.275 65.7024 262.775 65.7415L281.222 67.1818C281.766 67.2243 282.236 66.8064 282.257 66.2617L282.705 54.7069C282.719 54.3569 282.541 54.0274 282.241 53.8469L263.345 42.484C262.704 42.099 261.889 42.5599 261.889 43.3068ZM263.81 45.0051L280.763 55.1997L280.375 65.1894L263.81 63.8959V45.0051Z" fill="#2E186A"/>
<path fill-rule="evenodd" clip-rule="evenodd" d="M287.863 20.2611C280.177 14.9478 273.259 12.9953 262.402 26.8867L260.929 36.041C256.381 34.6647 253.979 36.9052 254.972 40.8742C256.029 45.1633 258.527 47.0837 262.658 45.9635C262.658 45.9635 262.434 45.4193 262.658 45.9635C264.644 50.4446 268.391 55.5979 275.341 57.1022C286.23 59.4708 288.728 52.7171 289.945 50.0925C291.13 47.4038 295.549 25.5744 287.863 20.2611Z" fill="white"/>
<path fill-rule="evenodd" clip-rule="evenodd" d="M276.183 15.4218C271.607 16.0822 266.952 19.5047 261.644 26.2956L261.603 26.3518C261.526 26.4667 261.475 26.5971 261.453 26.7343L260.145 34.8554L260.01 34.8296C255.575 34.0159 252.932 36.6819 254.039 41.1071L254.075 41.2518C255.234 45.7614 258.012 47.8627 262.111 47.0754L262.196 47.251C264.888 52.7978 269.095 56.7331 275.136 58.0407C281.94 59.5207 286.302 57.8056 289.008 53.8938C289.417 53.3032 289.772 52.6858 290.115 51.9979L290.242 51.738C290.306 51.6064 290.37 51.4708 290.437 51.3245L290.816 50.4963C291.707 48.4749 292.937 41.7793 293.19 36.2044C293.557 28.097 292.181 22.0792 288.409 19.4714C283.679 16.2022 280.097 14.8569 276.183 15.4218ZM287.316 21.0508C290.358 23.1537 291.609 28.6287 291.27 36.1177L291.253 36.4686C290.976 41.7553 289.82 47.9908 289.065 49.7054L288.759 50.3752C288.626 50.6661 288.513 50.9045 288.395 51.1417C288.09 51.7531 287.779 52.2933 287.428 52.8017C285.165 56.0727 281.589 57.4788 275.544 56.164C269.861 54.9337 265.976 51.0818 263.536 45.5747C263.345 45.143 262.868 44.9144 262.411 45.0353L262.288 45.068C258.889 45.9465 256.858 44.5187 255.904 40.6446C255.078 37.3419 256.878 35.8186 260.649 36.96L260.705 36.9751C261.244 37.1043 261.787 36.7485 261.876 36.1935L263.31 27.2843L263.618 26.8959C268.451 20.8502 272.585 17.8815 276.458 17.3225C279.782 16.8427 282.948 18.0317 287.316 21.0508Z" fill="#2E186A"/>
<path fill-rule="evenodd" clip-rule="evenodd" d="M284.136 36.0471C284.645 35.9896 285.105 36.3397 285.191 36.8373L285.199 36.8932L286.128 45.0872C286.191 45.6461 285.764 46.1351 285.209 46.1549L285.153 46.1553L282.11 46.0913C281.58 46.0802 281.159 45.6413 281.17 45.1111C281.181 44.5998 281.59 44.1903 282.094 44.1717L282.151 44.1713L284.095 44.212L283.29 37.1094C283.232 36.6012 283.583 36.1409 284.08 36.0551L284.136 36.0471Z" fill="#2E186A"/>
<path fill-rule="evenodd" clip-rule="evenodd" d="M287.798 38.4096C288.311 38.4096 288.727 37.7791 288.727 37.0012C288.727 36.2234 288.311 35.5929 287.798 35.5929C287.285 35.5929 286.869 36.2234 286.869 37.0012C286.869 37.7791 287.285 38.4096 287.798 38.4096Z" fill="#2E186A"/>
<path fill-rule="evenodd" clip-rule="evenodd" d="M278.991 38.2496C279.504 38.2496 279.92 37.619 279.92 36.8412C279.92 36.0634 279.504 35.4329 278.991 35.4329C278.478 35.4329 278.062 36.0634 278.062 36.8412C278.062 37.619 278.478 38.2496 278.991 38.2496Z" fill="#2E186A"/>
<path fill-rule="evenodd" clip-rule="evenodd" d="M287.232 27.7753C287.805 27.6834 288.413 27.6783 289.011 27.824C290.058 28.0791 290.864 28.7643 291.214 29.9012C291.37 30.408 291.085 30.9454 290.578 31.1013C290.089 31.2517 289.572 30.9926 289.396 30.5194L289.377 30.466C289.238 30.014 288.978 29.7927 288.556 29.6898C288.243 29.6136 287.879 29.6167 287.536 29.6715L287.459 29.6849C287.426 29.6911 287.4 29.6964 287.385 29.7001L287.372 29.7032C286.859 29.8395 286.333 29.5344 286.197 29.0219C286.06 28.5094 286.365 27.9834 286.878 27.8472L286.956 27.8282C287.028 27.8115 287.121 27.793 287.232 27.7753Z" fill="#2E186A"/>
<path fill-rule="evenodd" clip-rule="evenodd" d="M278.222 46.8917C278.222 46.8917 281.169 47.948 283.635 47.5319C283.635 47.5319 282.706 51.7889 280.304 51.2768C277.934 50.7327 278.222 46.8917 278.222 46.8917Z" fill="#2E186A"/>
<path fill-rule="evenodd" clip-rule="evenodd" d="M247.765 10.4346C242.865 0.864266 235.019 0.0320588 225.955 1.85651C216.892 3.64896 211.831 15.844 211.511 16.9643C207.828 30.1515 212.696 44.235 223.585 52.5571C224.802 53.4853 225.987 54.4136 227.14 55.3098C233.545 60.303 219.358 64.5921 219.358 64.5921C246.484 66.7686 240.559 39.6259 239.983 37.2253C248.694 33.9285 252.313 19.3329 247.765 10.4346Z" fill="#2E186A"/>
<path fill-rule="evenodd" clip-rule="evenodd" d="M262.37 29.3833C261.506 31.5919 259.007 32.6801 256.798 31.8159L241.073 25.7024C238.863 24.8382 237.774 22.3416 238.639 20.133C239.503 17.9245 242.001 16.8362 244.211 17.7004L259.936 23.8139C262.146 24.6782 263.235 27.1748 262.37 29.3833Z" fill="#EE6F56"/>
<path fill-rule="evenodd" clip-rule="evenodd" d="M295.484 29.6074C295.388 22.9497 293.787 17.1243 289.783 13.2833C289.239 12.6112 288.502 12.035 287.509 11.4909C284.243 9.37836 279.791 8.22608 273.866 8.45013C273.77 8.45013 273.642 8.48214 273.514 8.54615C272.585 8.64218 271.656 8.77021 270.759 8.96226C270.279 9.02627 269.799 9.15431 269.286 9.31435C267.589 9.76246 266.02 10.3706 264.546 11.0428C251.287 16.7402 246.099 27.0147 252.024 41.1943C255.066 48.4921 259.038 50.8607 262.881 50.8607V46.4436C262.561 45.7394 262.016 46.0275 262.016 46.0275C257.885 47.1477 256.059 45.1632 254.97 40.8742C254.458 38.7937 254.874 37.2253 255.995 36.3611C256.027 36.3291 256.059 36.3291 256.091 36.297C256.123 36.265 256.187 36.233 256.219 36.201C256.251 36.169 256.283 36.169 256.315 36.137C256.38 36.105 256.412 36.073 256.476 36.041C256.508 36.041 256.54 36.009 256.572 36.009C256.636 35.977 256.7 35.945 256.732 35.945C256.764 35.945 256.796 35.9129 256.828 35.9129C256.892 35.8809 256.956 35.8809 257.02 35.8489C257.052 35.8489 257.052 35.8489 257.084 35.8169C257.436 35.7209 257.821 35.6569 258.237 35.6569H258.269C258.365 35.6569 258.461 35.6569 258.557 35.6569C258.589 35.6569 258.589 35.6569 258.621 35.6569C258.717 35.6569 258.814 35.6569 258.91 35.6569C258.942 35.6569 258.942 35.6569 258.974 35.6569C259.07 35.6569 259.198 35.6889 259.294 35.6889H259.326C259.806 35.7529 260.351 35.8809 260.895 36.041C261.248 36.137 260.991 36.297 261.376 36.4571L262.336 36.3931C262.657 36.3931 263.009 36.3611 263.361 36.3291C271.72 35.3368 284.723 29.3513 289.335 21.6694C292.602 25.6384 292.954 33.4163 292.345 40.01C294.331 36.9052 295.548 33.4163 295.484 29.6074Z" fill="#2E186A"/>
<path fill-rule="evenodd" clip-rule="evenodd" d="M275.697 27.16C276.747 26.3895 278.044 26.005 279.546 26.2247C280.071 26.3015 280.434 26.7891 280.358 27.3139C280.281 27.8386 279.793 28.2017 279.268 28.1249C278.298 27.9832 277.499 28.2203 276.834 28.708C276.647 28.8457 276.486 28.9929 276.353 29.1378L276.298 29.1997C276.267 29.2363 276.245 29.2634 276.233 29.2786L276.227 29.2878C275.926 29.7246 275.328 29.8349 274.891 29.5341C274.454 29.2334 274.343 28.6355 274.644 28.1987L274.695 28.1279C274.753 28.0505 274.833 27.9537 274.934 27.8429C275.148 27.6084 275.402 27.3763 275.697 27.16Z" fill="white"/>
<path fill-rule="evenodd" clip-rule="evenodd" d="M301.153 87.7978L299.136 77.1072C298.303 72.7541 294.108 69.9054 289.784 70.7056L286.71 71.2817C284.66 60.4631 274.251 53.3573 263.426 55.3738C252.601 57.4223 245.491 67.8249 247.509 78.6436L244.434 79.2197C240.079 80.0519 237.229 84.245 238.029 88.566L240.047 99.2567C250.872 97.2082 261.312 104.346 263.33 115.165C265.38 125.983 258.238 136.418 247.413 138.466L248.758 145.54C249.591 149.893 253.786 152.742 258.11 151.942L303.459 143.396C307.815 142.563 310.665 138.37 309.865 134.049L308.52 126.976C297.695 129.024 287.254 121.886 285.236 111.068C283.187 100.281 290.296 89.8464 301.153 87.7978Z" fill="#FEBA91"/>
<path fill-rule="evenodd" clip-rule="evenodd" d="M258.174 144.484C262.497 147.557 263.074 145.22 261.793 143.748C260.223 141.891 252.665 135.97 252.665 135.97C252.665 135.97 258.718 137.762 260.191 134.369C261.665 130.977 260.063 130.304 257.789 131.457C255.516 132.609 248.438 128.448 248.438 128.448L246.132 126.303C246.132 126.303 238.349 123.807 236.364 132.417C234.826 137.346 238.061 140.739 238.061 140.739C238.99 141.795 242.192 145.956 252.345 151.014C252.345 151.014 257.117 152.774 253.53 149.349C252.601 148.453 251.64 147.653 250.712 146.981" fill="white"/>
<path fill-rule="evenodd" clip-rule="evenodd" d="M240.693 125.501C242.321 124.914 244.024 124.889 245.609 125.192L245.787 125.228C246.069 125.287 246.286 125.345 246.425 125.389C246.537 125.425 246.641 125.481 246.732 125.554L246.786 125.6L249.013 127.671L249.151 127.751L249.39 127.884C249.515 127.954 249.65 128.028 249.792 128.105C250.472 128.473 251.196 128.84 251.932 129.183C252.581 129.485 253.208 129.753 253.8 129.977L254.052 130.07C255.67 130.656 256.883 130.839 257.354 130.6C258.832 129.851 260.166 129.714 261.036 130.493C261.976 131.335 261.916 132.809 261.072 134.752C260.336 136.447 258.737 137.25 256.649 137.383C256.503 137.393 256.357 137.399 256.209 137.402L256.001 137.403L256.387 137.716C256.795 138.047 257.198 138.377 257.593 138.703L258.208 139.213L258.84 139.742C260.625 141.245 261.882 142.383 262.474 143.067L262.517 143.118C263.494 144.24 263.736 145.801 262.652 146.595C261.584 147.377 259.874 146.871 257.616 145.266C257.184 144.959 257.083 144.36 257.39 143.927C257.698 143.495 258.298 143.394 258.73 143.701C259.674 144.372 260.445 144.783 261.016 144.952C261.157 144.993 261.276 145.017 261.373 145.027L261.419 145.031L261.415 145.008C261.376 144.838 261.273 144.633 261.113 144.434L261.058 144.367C260.535 143.748 259.152 142.505 257.196 140.87L256.756 140.504C255.732 139.654 254.634 138.763 253.535 137.885L252.905 137.383L252.072 136.726C251.252 136.083 251.898 134.794 252.884 135.035L253.082 135.089C253.11 135.096 253.141 135.104 253.175 135.112C253.38 135.163 253.611 135.215 253.863 135.263C254.771 135.437 255.689 135.52 256.526 135.467C257.969 135.375 258.913 134.9 259.309 133.987C259.623 133.265 259.78 132.688 259.797 132.281C259.803 132.135 259.79 132.027 259.767 131.958L259.754 131.924L259.741 131.919C259.734 131.917 259.725 131.914 259.713 131.911C259.648 131.896 259.552 131.891 259.429 131.904C259.137 131.934 258.759 132.053 258.331 132.26L258.223 132.313C257.066 132.9 255.364 132.622 253.12 131.773C252.48 131.531 251.81 131.245 251.12 130.924C250.348 130.564 249.59 130.179 248.878 129.794L248.59 129.637C248.498 129.586 248.41 129.537 248.326 129.49L248.068 129.344C248.016 129.314 247.977 129.291 247.95 129.276C247.91 129.252 247.872 129.226 247.835 129.196L247.783 129.151L245.648 127.166L245.621 127.159C245.538 127.139 245.447 127.118 245.349 127.098L245.248 127.078C243.972 126.835 242.601 126.855 241.344 127.307C239.399 128.008 237.985 129.661 237.299 132.633C237.294 132.656 237.288 132.68 237.28 132.703C236.584 134.935 236.899 136.969 237.852 138.747C238.058 139.132 238.278 139.471 238.497 139.76L238.575 139.862C238.649 139.955 238.705 140.021 238.74 140.06L238.782 140.105L239.248 140.645C239.477 140.907 239.701 141.153 239.952 141.416C240.628 142.125 241.411 142.856 242.355 143.636C244.87 145.711 248.181 147.845 252.485 150.01L252.723 150.129L252.853 150.174L253.001 150.222L253.072 150.244L252.949 150.123L252.862 150.04C251.987 149.196 251.063 148.421 250.147 147.758C249.718 147.447 249.622 146.847 249.933 146.417C250.244 145.988 250.845 145.892 251.274 146.203C252.264 146.919 253.257 147.752 254.193 148.655L254.369 148.825C255.625 150.052 256.105 150.86 255.701 151.688C255.446 152.211 254.975 152.401 254.419 152.424C254.12 152.436 253.785 152.396 253.408 152.318C253.208 152.276 253.001 152.224 252.788 152.164L252.599 152.108C252.356 152.035 252.151 151.966 252.012 151.914C251.979 151.902 251.947 151.888 251.916 151.873C247.343 149.595 243.818 147.333 241.132 145.116C240.127 144.287 239.289 143.505 238.561 142.742C238.344 142.514 238.145 142.297 237.948 142.075L237.346 141.381L237.333 141.367C237.255 141.282 237.148 141.156 237.02 140.991L236.964 140.918C236.688 140.553 236.413 140.13 236.158 139.653C235.001 137.495 234.598 134.999 235.396 132.294L235.436 132.164L235.468 132.028C236.302 128.593 238.102 126.482 240.569 125.546L240.693 125.501Z" fill="#2E186A"/>
<path fill-rule="evenodd" clip-rule="evenodd" d="M251.416 139.875C252.921 140.995 259.262 144.548 260.768 146.82C262.273 149.093 260.383 149.829 254.971 145.924" fill="white"/>
<path fill-rule="evenodd" clip-rule="evenodd" d="M250.645 139.301C250.95 138.892 251.518 138.795 251.94 139.07L252.073 139.164C252.712 139.604 255.77 141.545 256.626 142.118L257.064 142.413C257.564 142.753 258.024 143.078 258.451 143.392C259.964 144.504 261.012 145.45 261.569 146.29C262.06 147.033 262.303 147.713 262.208 148.333C262.075 149.202 261.354 149.668 260.443 149.649C259.129 149.622 257.061 148.616 254.409 146.703C253.978 146.392 253.881 145.792 254.192 145.362C254.502 144.932 255.103 144.835 255.533 145.146L255.816 145.347C257.727 146.699 259.234 147.478 260.112 147.678L260.169 147.69L260.142 147.64C260.104 147.571 260.06 147.495 260.007 147.413L259.967 147.351C259.57 146.752 258.653 145.924 257.313 144.938C256.847 144.596 256.335 144.238 255.771 143.857L255.399 143.609C254.349 142.917 251.262 140.957 250.842 140.645C250.416 140.328 250.328 139.727 250.645 139.301Z" fill="#2E186A"/>
<path fill-rule="evenodd" clip-rule="evenodd" d="M249.077 142.307C249.237 142.595 259.614 148.197 258.941 149.669C258.397 150.885 256.923 150.949 251.159 147.301L246.547 144.1" fill="white"/>
<path fill-rule="evenodd" clip-rule="evenodd" d="M248.61 141.468C248.971 141.268 249.405 141.324 249.701 141.577L249.74 141.612L249.852 141.687L250.175 141.888C250.344 141.991 250.553 142.117 250.92 142.336L252.173 143.087C253.082 143.634 253.717 144.024 254.435 144.478L254.539 144.544C254.894 144.769 255.233 144.988 255.556 145.201L255.796 145.359C256.965 146.138 257.896 146.821 258.568 147.412L258.663 147.496C259.725 148.452 260.214 149.195 259.818 150.061C259.309 151.199 258.262 151.611 256.775 151.241C255.494 150.922 253.655 149.998 250.983 148.325L250.645 148.112L250.611 148.089L245.999 144.889C245.563 144.586 245.455 143.988 245.758 143.552C246.049 143.133 246.615 143.017 247.046 143.279L247.095 143.311L251.692 146.501L251.833 146.591C254.384 148.197 256.11 149.078 257.174 149.361L257.24 149.378C257.594 149.466 257.778 149.495 257.889 149.463L257.902 149.459L257.893 149.447C257.789 149.319 257.64 149.165 257.45 148.99L257.377 148.924C256.808 148.412 255.962 147.783 254.88 147.057L254.731 146.958C254.425 146.754 254.104 146.545 253.766 146.329L253.509 146.165C252.762 145.691 252.119 145.297 251.177 144.73L249.134 143.503L248.91 143.364C248.814 143.303 248.735 143.252 248.671 143.208C248.613 143.169 248.565 143.134 248.521 143.099C248.399 143.003 248.324 142.931 248.237 142.774C247.979 142.31 248.146 141.725 248.61 141.468Z" fill="#2E186A"/>
<path fill-rule="evenodd" clip-rule="evenodd" d="M296.061 134.881C291 136.514 291.16 134.145 292.826 133.089C294.908 131.777 303.875 128.384 303.875 128.384C303.875 128.384 297.566 128.288 297.181 124.607C296.797 120.926 298.527 120.766 300.352 122.558C302.178 124.351 310.184 122.462 310.184 122.462L313.035 121.118C313.035 121.118 321.201 121.054 320.561 129.856C320.561 135.042 316.461 137.282 316.461 137.282C315.276 138.018 310.953 141.027 299.744 142.851C299.744 142.851 294.651 143.108 299.103 140.899C300.256 140.323 301.409 139.875 302.498 139.491" fill="white"/>
<path fill-rule="evenodd" clip-rule="evenodd" d="M312.958 120.161L313.028 120.158L313.125 120.159C313.212 120.161 313.323 120.166 313.456 120.175C313.747 120.195 314.067 120.232 314.408 120.29C315.375 120.452 316.342 120.748 317.253 121.213C320.145 122.689 321.795 125.489 321.531 129.761L321.522 129.896L321.521 130.031C321.483 132.405 320.673 134.401 319.343 136.017L319.245 136.135C318.749 136.72 318.217 137.212 317.683 137.616C317.437 137.803 317.227 137.944 317.067 138.041L316.952 138.108L316.616 138.32C316.436 138.434 316.275 138.533 316.101 138.637C315.631 138.919 315.136 139.195 314.579 139.478C313.103 140.228 311.365 140.943 309.286 141.612C306.605 142.475 303.493 143.214 299.899 143.799L299.846 143.806L299.793 143.811C299.764 143.812 299.715 143.814 299.649 143.816C299.264 143.827 298.84 143.822 298.43 143.787C298.04 143.753 297.701 143.696 297.412 143.602C296.882 143.431 296.485 143.142 296.352 142.594C296.11 141.594 296.897 140.922 298.674 140.04C299.744 139.505 300.852 139.053 302.179 138.585C302.679 138.409 303.228 138.671 303.405 139.171C303.581 139.671 303.319 140.22 302.818 140.396C301.561 140.84 300.523 141.263 299.531 141.759L299.317 141.867L299.254 141.9L299.398 141.9L299.646 141.894L299.95 141.844C303.18 141.304 305.991 140.638 308.428 139.87L308.697 139.784C310.68 139.146 312.323 138.47 313.708 137.766C314.223 137.504 314.679 137.25 315.113 136.99C315.233 136.918 315.348 136.848 315.469 136.773L315.955 136.467L316.065 136.402L316.122 136.366C316.241 136.29 316.376 136.197 316.522 136.086C316.949 135.762 317.378 135.365 317.779 134.893C318.888 133.585 319.563 131.976 319.599 130.024L319.601 129.856L319.603 129.787C319.864 126.202 318.628 124.071 316.379 122.923C315.658 122.555 314.875 122.316 314.089 122.183C313.857 122.144 313.639 122.117 313.439 122.1L313.265 122.087L313.236 122.085L310.595 123.331C310.555 123.35 310.513 123.366 310.47 123.379L310.406 123.397L310.23 123.437C310.12 123.461 309.998 123.488 309.863 123.517L309.76 123.538C309.259 123.642 308.712 123.746 308.136 123.844C307.113 124.016 306.108 124.148 305.161 124.223C302.531 124.431 300.665 124.211 299.68 123.243C299.3 122.871 298.943 122.613 298.65 122.485C298.536 122.436 298.443 122.411 298.376 122.406L298.334 122.406C298.335 122.405 298.33 122.409 298.312 122.433C298.269 122.492 298.225 122.591 298.186 122.733C298.08 123.126 298.056 123.723 298.138 124.507C298.253 125.609 299.188 126.401 300.809 126.913C301.479 127.124 302.207 127.267 302.937 127.351C303.142 127.375 303.336 127.392 303.513 127.405L303.643 127.413C303.749 127.419 303.826 127.422 303.871 127.423L303.89 127.424C304.93 127.44 305.197 128.853 304.27 129.26L302.825 129.816L302.431 129.969C301.259 130.425 300.087 130.891 298.975 131.344L298.226 131.652L297.383 132.004C295.391 132.844 293.962 133.509 293.341 133.9C293.098 134.054 292.908 134.246 292.807 134.418L292.797 134.436C292.883 134.457 292.99 134.471 293.119 134.476L293.2 134.478C293.797 134.486 294.659 134.325 295.766 133.968C296.271 133.805 296.813 134.082 296.976 134.587C297.139 135.091 296.861 135.632 296.356 135.795C293.712 136.648 291.933 136.624 291.149 135.564C290.354 134.488 291.048 133.08 292.314 132.277L292.437 132.201C293.254 131.712 294.8 131.003 296.943 130.106L297.771 129.762C298.402 129.503 299.055 129.238 299.719 128.973L300.267 128.755L300.231 128.744C298.001 128.041 296.494 126.785 296.24 124.817L296.227 124.707C296.007 122.599 296.392 121.174 297.544 120.655C298.61 120.174 299.841 120.71 301.026 121.873C301.458 122.297 302.942 122.472 305.009 122.308C305.895 122.238 306.845 122.114 307.817 121.95C308.367 121.857 308.89 121.757 309.368 121.658L309.648 121.599L309.869 121.55L312.625 120.25C312.73 120.2 312.843 120.17 312.958 120.161Z" fill="#2E186A"/>
<path fill-rule="evenodd" clip-rule="evenodd" d="M303.909 132.481C302.115 133.089 295.037 134.593 292.891 136.322C290.778 138.018 292.347 139.331 298.688 137.218" fill="white"/>
<path fill-rule="evenodd" clip-rule="evenodd" d="M303.599 131.572C304.101 131.401 304.647 131.67 304.817 132.172C304.982 132.657 304.737 133.181 304.269 133.371L304.216 133.39C303.747 133.549 299.785 134.608 298.573 134.971L298.065 135.125C295.803 135.826 294.224 136.481 293.492 137.071C293.388 137.154 293.3 137.232 293.228 137.302L293.193 137.336L293.203 137.338C294.106 137.436 295.865 137.134 298.228 136.358L298.383 136.307C298.887 136.139 299.431 136.411 299.599 136.914C299.767 137.418 299.494 137.961 298.991 138.129L298.643 138.243C295.716 139.187 293.56 139.483 292.342 139.118C291.471 138.857 290.929 138.193 291.063 137.327C291.16 136.706 291.597 136.128 292.288 135.574C293.311 134.75 295.155 133.999 297.829 133.189L298.234 133.068C299.574 132.678 302.726 131.832 303.471 131.611L303.599 131.572Z" fill="#2E186A"/>
<path fill-rule="evenodd" clip-rule="evenodd" d="M305.413 135.522C305.157 135.746 293.595 137.986 293.788 139.587C293.948 140.899 295.357 141.411 301.922 139.651L307.271 137.954" fill="white"/>
<path fill-rule="evenodd" clip-rule="evenodd" d="M305.03 134.641C305.403 134.479 305.853 134.567 306.136 134.889C306.485 135.288 306.444 135.895 306.045 136.244L305.977 136.302C305.858 136.401 305.778 136.439 305.486 136.518L304.926 136.661L302.574 137.227C301.761 137.424 301.11 137.587 300.462 137.757L299.851 137.919C298.094 138.393 296.704 138.834 295.748 139.239C295.399 139.387 295.12 139.527 294.92 139.649L294.85 139.695L294.855 139.699C294.948 139.757 295.118 139.786 295.439 139.808L295.51 139.812C296.605 139.879 298.533 139.557 301.49 138.772L301.652 138.729L306.979 137.039C307.467 136.884 307.987 137.139 308.167 137.61L308.186 137.664C308.341 138.151 308.086 138.671 307.614 138.851L307.561 138.869L302.212 140.566L302.17 140.578L301.598 140.729C298.667 141.491 296.691 141.808 295.394 141.729C293.865 141.637 292.983 140.934 292.833 139.701C292.714 138.712 293.45 138.14 294.895 137.515L294.997 137.472C296.012 137.041 297.403 136.595 299.14 136.122L299.85 135.932C300.716 135.703 301.566 135.493 302.766 135.205L304.585 134.767L304.848 134.699L304.995 134.657L305.03 134.641Z" fill="#2E186A"/>
<path fill-rule="evenodd" clip-rule="evenodd" d="M473.231 92.6311C473.327 75.1547 447.802 69.1372 447.802 69.1372C449.724 60.4631 448.859 38.9857 412.477 45.5474C393.837 48.7802 388.585 58.5426 392.556 66.4486C385.318 70.0335 367.223 95.9599 367.223 95.9599L367.576 118.237C366.23 117.949 364.821 117.789 363.38 117.789C351.947 117.725 342.595 126.976 342.563 138.434C342.499 149.861 352.715 160.104 364.181 160.168C365.558 160.168 366.903 160.04 368.216 159.752V160.168L467.082 159.912C467.082 159.912 467.562 140.099 465.193 119.102C469.324 109.595 473.231 98.9686 473.231 92.6311Z" fill="#EE6F56"/>
<path fill-rule="evenodd" clip-rule="evenodd" d="M431.789 58.4786L438.387 62.1275C438.387 62.1275 421.22 69.5213 418.114 103.738C416.096 125.951 417.698 160.616 417.698 160.616L406.36 160.456C406.36 160.456 409.403 91.7348 404.471 80.532C399.539 69.3613 404.983 68.6571 407.481 66.3205C410.011 64.016 431.789 58.4786 431.789 58.4786Z" fill="white"/>
<path fill-rule="evenodd" clip-rule="evenodd" d="M359.696 152.998C368.787 152.998 376.158 145.632 376.158 136.546C376.158 127.46 368.787 120.094 359.696 120.094C350.604 120.094 343.234 127.46 343.234 136.546C343.234 145.632 350.604 152.998 359.696 152.998Z" fill="#2E186A"/>
<path fill-rule="evenodd" clip-rule="evenodd" d="M419.714 152.23C427.621 152.23 434.03 145.824 434.03 137.922C434.03 130.02 427.621 123.615 419.714 123.615C411.808 123.615 405.398 130.02 405.398 137.922C405.398 145.824 411.808 152.23 419.714 152.23Z" fill="#2E186A"/>
<path fill-rule="evenodd" clip-rule="evenodd" d="M431.469 89.3663C434.319 88.0859 443.383 77.7154 447.802 69.0732C451.485 69.0092 456.802 71.5378 459.108 73.3303C448.635 89.8464 431.437 89.3663 431.469 89.3663Z" fill="#2E186A"/>
<path fill-rule="evenodd" clip-rule="evenodd" d="M430.765 117.676C432.694 117.213 434.862 117.041 437.168 117.329C440.264 117.714 443.284 118.899 446.11 121.044C448.385 122.771 450.48 125.083 452.359 128.028C452.644 128.475 452.513 129.068 452.065 129.354C451.618 129.639 451.024 129.507 450.739 129.06C448.979 126.302 447.037 124.159 444.948 122.573C442.398 120.639 439.698 119.579 436.931 119.234C434.87 118.977 432.931 119.131 431.214 119.544C430.872 119.626 430.565 119.713 430.296 119.799L430.183 119.836C430.012 119.894 429.901 119.936 429.853 119.956C429.363 120.16 428.801 119.929 428.596 119.44C428.391 118.95 428.623 118.388 429.112 118.184L429.228 118.137C429.56 118.008 430.081 117.841 430.765 117.676Z" fill="#2E186A"/>
<path fill-rule="evenodd" clip-rule="evenodd" d="M430.719 116.485C433.329 115.017 436.326 114.235 439.635 114.506C443.912 114.857 448.323 116.958 452.782 121.121C453.17 121.483 453.19 122.09 452.828 122.478C452.466 122.865 451.858 122.886 451.47 122.524C447.315 118.645 443.303 116.734 439.478 116.42C436.581 116.182 433.957 116.868 431.661 118.159C430.966 118.549 430.356 118.967 429.837 119.383L429.666 119.522C429.585 119.59 429.51 119.655 429.441 119.716L429.296 119.848L429.239 119.903C428.867 120.281 428.259 120.286 427.881 119.914C427.502 119.542 427.498 118.934 427.87 118.556L427.938 118.489C428.088 118.343 428.322 118.135 428.636 117.884C429.233 117.406 429.929 116.929 430.719 116.485Z" fill="#2E186A"/>
<path fill-rule="evenodd" clip-rule="evenodd" d="M465.004 119.169C465.496 119.307 465.791 119.805 465.683 120.298L465.666 120.367L465.571 120.688L465.465 121.034C465.395 121.258 465.317 121.503 465.23 121.767L465.177 121.928C464.767 123.164 464.267 124.539 463.675 126.019C461.983 130.249 459.885 134.478 457.355 138.432C453.306 144.76 448.54 149.767 442.998 152.949C436.329 156.778 428.824 157.781 420.504 155.465L420.253 155.394L420.126 155.361C420.06 155.343 419.982 155.321 419.892 155.294L419.823 155.274C419.471 155.169 419.081 155.042 418.661 154.889C417.464 154.453 416.265 153.906 415.14 153.234C413.577 152.301 412.281 151.202 411.347 149.912C411.036 149.483 411.132 148.882 411.561 148.571C411.991 148.26 412.592 148.356 412.903 148.786C413.668 149.841 414.77 150.776 416.126 151.586C417.137 152.189 418.228 152.688 419.319 153.084C419.646 153.203 419.952 153.306 420.232 153.391L420.485 153.467C420.592 153.497 420.672 153.519 420.723 153.532L420.78 153.547C428.696 155.81 435.75 154.895 442.041 151.284C447.282 148.275 451.841 143.485 455.736 137.397C458.195 133.554 460.241 129.431 461.891 125.306C462.43 123.959 462.89 122.703 463.272 121.565L463.353 121.323C463.457 121.009 463.55 120.722 463.63 120.464L463.754 120.06L463.819 119.835C463.962 119.324 464.493 119.026 465.004 119.169Z" fill="#2E186A"/>
<path fill-rule="evenodd" clip-rule="evenodd" d="M438.904 97.0534C439.397 97.2512 439.635 97.8104 439.438 98.3025L439.065 99.2205C438.767 99.9489 438.433 100.76 438.068 101.634L437.546 102.882C436.671 104.96 435.783 107.018 434.916 108.962L434.556 109.764C434.437 110.028 434.319 110.288 434.202 110.544L434.028 110.925C433.373 112.353 432.761 113.639 432.2 114.76C432.109 114.943 432.017 115.126 431.925 115.308C430.571 117.967 429.12 120.388 427.668 122.526C427.159 123.276 426.686 123.937 426.26 124.505L426.047 124.785L425.796 125.108C425.758 125.155 425.73 125.191 425.712 125.213C425.377 125.625 424.771 125.686 424.36 125.352C423.964 125.03 423.892 124.458 424.185 124.049L424.222 124.001C424.242 123.976 424.284 123.923 424.347 123.842L424.522 123.617C424.585 123.535 424.651 123.447 424.722 123.352L424.95 123.046C425.298 122.574 425.676 122.04 426.078 121.447C427.487 119.373 428.896 117.02 430.212 114.437L430.346 114.171L430.481 113.903C431.032 112.802 431.635 111.535 432.281 110.125L432.628 109.364C432.803 108.978 432.981 108.583 433.161 108.179C434.109 106.056 435.082 103.792 436.035 101.517L436.612 100.131C436.784 99.7155 436.949 99.3174 437.104 98.9391L437.655 97.5863C437.852 97.0942 438.412 96.8556 438.904 97.0534Z" fill="#2E186A"/>
<path fill-rule="evenodd" clip-rule="evenodd" d="M432.301 44.6191L431.821 59.7909C431.885 61.8074 430.988 63.7279 429.451 65.0402C426.504 67.4728 421.124 72.306 414.366 79.9559C414.366 79.9559 405.911 70.9617 404.502 56.9422L432.301 44.6191Z" fill="white"/>
<path fill-rule="evenodd" clip-rule="evenodd" d="M431.911 43.7414L404.112 56.0644C403.733 56.2326 403.504 56.6254 403.546 57.0382C404.127 62.8198 405.898 68.1792 408.487 73.0244C409.612 75.1292 410.818 76.9959 412.025 78.6055C412.407 79.1147 412.765 79.5657 413.093 79.9569L413.304 80.2065C413.469 80.3979 413.591 80.534 413.666 80.6134C414.053 81.0257 414.712 81.0155 415.086 80.5914C420.736 74.196 425.867 69.2444 430.062 65.7805L430.171 65.6863C431.853 64.1976 432.812 62.0932 432.784 59.9005L432.782 59.7954L433.261 44.6495C433.284 43.9421 432.559 43.4544 431.911 43.7414ZM431.292 46.1168L430.86 59.7605L430.86 59.8214C430.914 61.5201 430.163 63.1694 428.826 64.3101L428.623 64.4787C424.741 67.7042 420.093 72.1605 414.997 77.807L414.378 78.4964L414.358 78.4716C414.109 78.1673 413.843 77.8276 413.563 77.4534C412.412 75.9193 411.259 74.1344 410.182 72.1198L410.035 71.841C407.785 67.5582 406.204 62.8649 405.57 57.8347L405.533 57.5353L431.292 46.1168Z" fill="#2E186A"/>
<path fill-rule="evenodd" clip-rule="evenodd" d="M434.35 36.8092C434.35 36.8092 441.043 36.9692 439.826 42.9547C438.609 48.9402 431.211 45.4513 431.211 45.4513L432.236 36.9372L434.35 36.8092Z" fill="white"/>
<path fill-rule="evenodd" clip-rule="evenodd" d="M434.378 35.8494C434.349 35.8485 434.32 35.8489 434.291 35.8507L432.178 35.9787C431.714 36.0068 431.337 36.3619 431.282 36.8225L430.257 45.3366C430.207 45.7472 430.427 46.1433 430.801 46.3197L430.925 46.3765C431.235 46.515 431.697 46.6946 432.267 46.8731C433.394 47.226 434.528 47.4343 435.614 47.4219C438.257 47.3916 440.18 46.0368 440.768 43.1459C441.378 40.1433 440.293 38.0302 438.092 36.8409C437.344 36.4364 436.519 36.168 435.669 36.0052C435.366 35.9473 435.078 35.9065 434.81 35.8798L434.667 35.8667C434.623 35.863 434.581 35.8599 434.542 35.8574L434.378 35.8494ZM433.094 37.8472L434.361 37.7704L434.435 37.7745C434.648 37.7879 434.95 37.8231 435.307 37.8914C435.978 38.0199 436.621 38.229 437.178 38.5303C438.659 39.3303 439.32 40.6189 438.884 42.7635C438.49 44.7016 437.384 45.481 435.592 45.5015C434.736 45.5113 433.791 45.3378 432.841 45.0404L432.679 44.9886C432.573 44.9537 432.469 44.9181 432.369 44.8822L432.252 44.8393L433.094 37.8472Z" fill="#2E186A"/>
<path fill-rule="evenodd" clip-rule="evenodd" d="M415.326 17.7964C413.564 17.6364 401.458 16.8362 400.081 26.9187C398.704 37.0012 400.081 48.172 401.202 53.2613C402.291 58.3505 425.51 56.11 426.823 55.6619C428.136 55.2137 429.705 53.6774 429.705 53.6774L432.94 38.1855C432.94 38.1855 434.317 19.4609 415.326 17.7964Z" fill="white"/>
<path fill-rule="evenodd" clip-rule="evenodd" d="M412.353 16.7771C410.605 16.8518 408.888 17.1084 407.279 17.598C402.789 18.9644 399.793 21.9247 399.129 26.7888C397.948 35.4344 398.666 46.2142 400.264 53.4677C400.889 56.3892 405.76 57.4506 413.684 57.4972L414.239 57.4986C419.387 57.4929 426.032 56.9464 427.134 56.5705C427.36 56.4932 427.592 56.3915 427.83 56.2678C428.22 56.0646 428.622 55.8048 429.031 55.5011C429.366 55.253 429.687 54.9892 429.985 54.7253L430.197 54.5339C430.274 54.4636 430.334 54.4058 430.378 54.3633C430.514 54.2302 430.607 54.0597 430.646 53.8735L433.881 38.3816C433.889 38.3402 433.895 38.2981 433.898 38.2559L433.908 38.076L433.911 38.0128C433.918 37.8287 433.923 37.6167 433.923 37.3787C433.924 36.7053 433.892 35.9546 433.815 35.1438C433.597 32.8274 433.07 30.4825 432.142 28.2471C429.499 21.8797 424.195 17.6849 415.669 16.8637L415.41 16.8399C414.556 16.7623 413.532 16.7267 412.353 16.7771ZM415.239 18.7527C423.182 19.4488 427.963 23.1918 430.367 28.9831C431.215 31.0258 431.701 33.1865 431.902 35.3237C431.965 35.9886 431.995 36.6078 432.001 37.169L432.002 37.3766C432.001 37.5895 431.997 37.777 431.991 37.9368L431.985 38.0581L428.827 53.1832L428.711 53.2875C428.452 53.5171 428.172 53.7468 427.886 53.9593C427.552 54.2068 427.233 54.4132 426.943 54.5644C426.786 54.6458 426.642 54.7091 426.513 54.7531C425.666 55.0421 419.043 55.5832 414.082 55.5782L413.932 55.5778C407.025 55.5552 402.468 54.5885 402.142 53.0605C400.588 46.0086 399.885 35.4512 401.033 27.0486C401.586 22.9989 404.014 20.599 407.839 19.4352C409.278 18.9972 410.838 18.764 412.435 18.6958C413.521 18.6494 414.462 18.6821 415.239 18.7527Z" fill="#2E186A"/>
<path fill-rule="evenodd" clip-rule="evenodd" d="M430.7 38.0575C429.547 39.1778 426.504 45.5794 425.736 48.5561C425.736 48.5561 418.209 45.9955 407.416 45.8034C407.416 45.8034 401.523 45.8994 399.186 46.5716C399.186 46.5716 399.634 57.1663 404.406 62.6716C409.146 68.177 419.234 66.6726 423.974 63.4078C428.714 60.143 429.515 58.5746 430.604 55.0217C431.724 51.5008 434.671 38.3456 434.671 38.3456L430.7 38.0575Z" fill="#968BB4"/>
<path fill-rule="evenodd" clip-rule="evenodd" d="M433.774 40.33C433.774 40.33 436.944 35.4648 438.193 30.4076C439.346 25.6384 437.169 20.6452 432.749 18.5006C429.066 16.7082 426.312 18.0845 426.312 18.0845C426.312 18.0845 430.251 11.4269 424.39 5.50539C422.34 3.42488 419.458 2.27259 416.543 2.33661C409.37 2.52866 407.128 8.57816 407.128 8.57816C407.128 8.57816 399.505 -5.56936 383.716 2.7207C382.115 3.55291 380.322 5.88949 379.457 7.48989C374.204 17.0603 391.307 28.4871 400.242 29.4153C410.042 30.4396 415.807 28.8392 418.945 26.4706C416.576 27.8469 419.17 42.5386 433.774 40.33Z" fill="#2E186A"/>
<path fill-rule="evenodd" clip-rule="evenodd" d="M413.515 52.5778C413.826 51.9757 414.557 51.7164 415.182 51.999C415.826 52.2906 416.112 53.0493 415.82 53.6934L415.772 53.7937C415.717 53.9036 415.641 54.0419 415.542 54.2012C415.33 54.5431 415.073 54.8835 414.765 55.2045C413.357 56.6771 411.413 57.2404 409.136 56.3012C408.482 56.0314 408.171 55.2828 408.441 54.6292C408.711 53.9756 409.46 53.6645 410.114 53.9343C411.337 54.4391 412.189 54.1922 412.914 53.4348C413.09 53.2507 413.241 53.05 413.365 52.8509L413.423 52.7544L413.486 52.6371L413.515 52.5778Z" fill="#2E186A"/>
<path fill-rule="evenodd" clip-rule="evenodd" d="M406.235 41.4337C406.403 40.7469 407.097 40.3266 407.784 40.4948C408.45 40.6578 408.865 41.3134 408.738 41.9786L408.724 42.043L407.12 48.5833L409.754 48.8507C410.437 48.92 410.94 49.5128 410.904 50.1901L410.9 50.2538C410.83 50.936 410.237 51.4384 409.559 51.4031L409.496 51.3982L405.396 50.9821C404.644 50.9057 404.126 50.1999 404.268 49.4666L404.281 49.4037L406.235 41.4337Z" fill="#2E186A"/>
<path fill-rule="evenodd" clip-rule="evenodd" d="M404.457 40.5074C404.461 39.6942 404.033 39.0332 403.503 39.0309C402.972 39.0286 402.539 39.686 402.536 40.4991C402.532 41.3123 402.959 41.9733 403.49 41.9756C404.021 41.9779 404.454 41.3206 404.457 40.5074Z" fill="#2E186A"/>
<path fill-rule="evenodd" clip-rule="evenodd" d="M413.561 40.4011C413.564 39.5879 413.137 38.9269 412.606 38.9246C412.076 38.9223 411.643 39.5796 411.639 40.3928C411.636 41.206 412.063 41.867 412.594 41.8693C413.124 41.8716 413.557 41.2142 413.561 40.4011Z" fill="#2E186A"/>
<path fill-rule="evenodd" clip-rule="evenodd" d="M413.032 32.1169C414.649 31.8859 416.056 32.3072 417.199 33.1426C417.522 33.3781 417.8 33.6308 418.036 33.8864L418.14 34.0033C418.237 34.115 418.311 34.2102 418.363 34.2836C418.768 34.8633 418.626 35.6615 418.046 36.0664C417.484 36.4582 416.718 36.3381 416.302 35.8045L416.25 35.7342C416.233 35.7135 416.2 35.6744 416.151 35.6217C416.024 35.4834 415.868 35.342 415.687 35.2098C415.08 34.7661 414.365 34.5411 413.507 34.6374L413.394 34.6518C412.694 34.7518 412.045 34.2654 411.945 33.5654C411.845 32.8654 412.331 32.2169 413.032 32.1169Z" fill="#2E186A"/>
<path fill-rule="evenodd" clip-rule="evenodd" d="M402.508 31.9225C403.169 31.764 403.835 31.7712 404.464 31.8732L404.604 31.8975C404.712 31.9179 404.8 31.9382 404.865 31.9557C405.548 32.1389 405.954 32.8411 405.77 33.5241C405.593 34.1857 404.928 34.5865 404.265 34.4444L404.165 34.4207C404.139 34.4155 404.102 34.4085 404.054 34.4008C403.732 34.3485 403.388 34.3448 403.105 34.4126C402.779 34.4905 402.593 34.6358 402.478 34.9539L402.457 35.0156C402.245 35.6903 401.526 36.0659 400.851 35.8544C400.176 35.6429 399.801 34.9245 400.012 34.2497C400.411 32.9766 401.33 32.2047 402.508 31.9225Z" fill="#2E186A"/>
<path fill-rule="evenodd" clip-rule="evenodd" d="M411.9 65.5203L365.109 65.3283C360.626 65.2963 356.975 68.9452 356.943 73.4263L356.911 84.437C345.733 84.373 336.638 93.3993 336.606 104.57C336.542 115.741 345.573 124.831 356.75 124.863L356.718 132.161C356.686 136.642 360.337 140.291 364.821 140.323L411.612 140.515C416.096 140.547 419.747 136.898 419.779 132.417L420.035 73.6824C420.003 69.2012 416.384 65.5523 411.9 65.5203Z" fill="#FEBA91"/>
<path fill-rule="evenodd" clip-rule="evenodd" d="M353.389 136.258C353.421 136.13 360.467 127.904 360.691 128.096C360.915 128.288 370.555 132.577 370.779 132.929C371.003 133.249 371.356 135.202 370.395 136.994C369.434 138.786 368.345 142.915 363.989 143.236C359.634 143.556 353.389 136.258 353.389 136.258Z" fill="white"/>
<path fill-rule="evenodd" clip-rule="evenodd" d="M366.232 129.984C366.232 129.984 367.065 124.319 365.751 122.975C364.438 121.63 357.104 134.177 354.574 135.042" fill="white"/>
<path fill-rule="evenodd" clip-rule="evenodd" d="M364.353 122.349C365.082 121.831 365.828 121.678 366.439 122.304C367.185 123.067 367.445 124.429 367.453 126.333C367.457 127.177 367.406 128.074 367.319 128.967L367.282 129.318C367.276 129.374 367.27 129.43 367.264 129.485L367.204 129.972C367.195 130.037 367.188 130.089 367.183 130.124C367.106 130.649 366.617 131.011 366.092 130.934C365.567 130.857 365.204 130.369 365.282 129.845L365.306 129.668L365.319 129.56C365.349 129.326 365.378 129.064 365.406 128.781C365.487 127.947 365.535 127.113 365.531 126.342C365.527 125.396 365.439 124.627 365.299 124.141L365.276 124.064L365.25 124.087C365.013 124.291 364.719 124.589 364.376 124.975L364.087 125.306C363.49 125.999 362.931 126.713 361.708 128.333L360.173 130.371C357.345 134.107 356.065 135.547 354.885 135.95C354.383 136.122 353.837 135.854 353.665 135.352C353.5 134.868 353.743 134.343 354.211 134.153L354.264 134.133C354.896 133.917 356.259 132.358 358.738 129.083L360.091 127.286C361.463 125.467 362.039 124.735 362.718 123.952L362.844 123.808C363.432 123.137 363.923 122.655 364.353 122.349Z" fill="#2E186A"/>
<path fill-rule="evenodd" clip-rule="evenodd" d="M370.139 130.977C370.139 130.977 371.9 126.848 369.562 124.863C367.256 122.879 361.523 134.177 359.025 135.618" fill="white"/>
<path fill-rule="evenodd" clip-rule="evenodd" d="M366.567 124.866C367.897 123.65 369.135 123.228 370.184 124.131C371.128 124.932 371.61 126.036 371.714 127.322C371.793 128.289 371.656 129.295 371.383 130.284C371.251 130.76 371.118 131.13 371.022 131.353C370.814 131.841 370.25 132.068 369.762 131.86C369.291 131.659 369.063 131.128 369.234 130.652L369.304 130.474C369.313 130.45 369.323 130.422 369.334 130.392C369.401 130.208 369.468 129.999 369.531 129.772C369.749 128.983 369.857 128.189 369.799 127.477C369.736 126.701 369.483 126.092 369.005 125.652L368.928 125.585C368.92 125.582 368.908 125.588 368.827 125.616C368.594 125.696 368.263 125.919 367.865 126.283C367.121 126.963 366.248 128.019 365.079 129.607L364.625 130.23L363.01 132.474C360.897 135.394 360.407 135.93 359.506 136.449C359.046 136.714 358.458 136.557 358.193 136.097C357.928 135.638 358.086 135.051 358.545 134.786L358.591 134.759C359.189 134.395 359.803 133.638 361.967 130.636L362.882 129.362C363.01 129.184 363.13 129.019 363.245 128.861L363.414 128.629C364.712 126.856 365.679 125.678 366.567 124.866Z" fill="#2E186A"/>
<path fill-rule="evenodd" clip-rule="evenodd" d="M371.195 135.714C371.195 135.714 374.141 128.32 372.092 126.751C370.042 125.183 366.679 134.785 362.676 136.994" fill="white"/>
<path fill-rule="evenodd" clip-rule="evenodd" d="M370.607 125.903C371.301 125.511 372.048 125.509 372.676 125.989C373.888 126.917 374.01 128.739 373.513 131.272C373.367 132.018 373.167 132.804 372.927 133.61C372.77 134.135 372.604 134.644 372.437 135.122L372.353 135.359C372.298 135.512 372.246 135.653 372.198 135.781L372.088 136.069C371.891 136.562 371.332 136.802 370.839 136.606C370.346 136.41 370.106 135.851 370.302 135.358L370.366 135.192L370.469 134.918C370.493 134.852 370.518 134.783 370.544 134.711C370.728 134.196 370.913 133.639 371.085 133.062C371.309 132.311 371.494 131.583 371.628 130.903L371.676 130.644C371.956 129.076 371.895 127.97 371.584 127.589L371.565 127.568L371.553 127.575C371.349 127.69 371.067 127.958 370.723 128.378L370.654 128.463L370.534 128.615C370.252 128.981 369.939 129.427 369.551 130.013L369.232 130.501C368.89 131.03 368.158 132.166 367.915 132.537L367.69 132.876C365.95 135.488 364.635 137.01 363.14 137.835C362.676 138.091 362.091 137.922 361.835 137.458C361.578 136.994 361.747 136.41 362.212 136.153C363.351 135.525 364.525 134.162 366.101 131.797L366.45 131.266C366.833 130.677 367.601 129.483 367.772 129.221L367.964 128.93C368.429 128.228 368.8 127.705 369.153 127.264C369.668 126.62 370.131 126.172 370.607 125.903Z" fill="#2E186A"/>
<path fill-rule="evenodd" clip-rule="evenodd" d="M355.118 134.785C354.798 133.185 354.958 131.521 355.599 130.048C356.335 128.32 357.2 126.015 357.264 124.511C357.392 121.918 353.165 123.135 352.973 124.735C352.781 126.335 351.98 126.239 350.122 127.904C348.265 129.536 348.617 136.066 348.617 136.066C348.617 136.066 346.984 139.427 352.236 143.428C357.488 147.429 363.125 144.324 363.125 144.324C363.125 144.324 373.309 140.579 373.309 133.249C373.309 125.919 370.619 136.61 365.527 139.619" fill="white"/>
<path fill-rule="evenodd" clip-rule="evenodd" d="M355.078 122.104C356.85 121.804 358.317 122.671 358.224 124.552C358.166 125.916 357.582 127.79 356.644 130.041L356.479 130.431C355.922 131.712 355.776 133.176 356.06 134.597C356.164 135.117 355.827 135.623 355.306 135.727C354.786 135.831 354.28 135.494 354.176 134.974C353.827 133.231 353.99 131.43 354.647 129.831L354.856 129.335C355.716 127.275 356.258 125.545 356.304 124.464C356.326 124.012 356.1 123.879 355.398 123.997C354.632 124.127 353.955 124.607 353.926 124.849C353.814 125.785 353.508 126.389 352.896 126.938L352.821 127.003C352.756 127.06 351.344 128.099 350.756 128.625C350.283 129.041 349.898 130.239 349.704 131.912C349.569 133.073 349.533 134.306 349.556 135.42L349.564 135.696C349.568 135.851 349.573 135.96 349.576 136.014C349.583 136.153 349.56 136.293 349.509 136.422L349.481 136.485C349.477 136.493 349.454 136.554 349.426 136.662C349.279 137.216 349.29 137.92 349.585 138.749C350.028 140 351.051 141.318 352.818 142.664C353.119 142.893 353.425 143.099 353.735 143.284C356.236 144.77 358.913 144.814 361.43 143.986C361.729 143.888 362.001 143.784 362.242 143.68L362.361 143.628C362.496 143.567 362.591 143.52 362.642 143.493L362.661 143.483C362.689 143.467 362.718 143.453 362.748 143.441L362.888 143.386C362.953 143.361 363.026 143.331 363.107 143.298L363.191 143.263C363.522 143.124 363.894 142.957 364.295 142.761C365.441 142.202 366.587 141.533 367.651 140.759C370.61 138.606 372.348 136.091 372.348 133.249L372.348 133.1L372.343 132.771L371.774 133.671C371.213 134.562 370.618 135.516 370.305 135.985L370.234 136.091C368.852 138.109 367.512 139.561 366.015 140.445C365.559 140.715 364.969 140.564 364.699 140.107C364.429 139.651 364.581 139.062 365.038 138.792C366.241 138.081 367.411 136.814 368.648 135.006L368.71 134.914C369.285 134.048 371.19 130.928 371.602 130.45C371.887 130.12 372.155 129.903 372.51 129.809C373.115 129.649 373.644 129.952 373.916 130.476C374.18 130.985 374.27 131.821 374.27 133.249C374.27 136.821 372.188 139.833 368.782 142.311C367.619 143.158 366.378 143.882 365.137 144.487C364.703 144.699 364.298 144.881 363.934 145.034L363.674 145.141L363.524 145.199L363.47 145.228L363.333 145.296C363.042 145.436 362.645 145.602 362.155 145.769L362.031 145.81C359.032 146.796 355.798 146.744 352.753 144.935C352.379 144.713 352.012 144.465 351.653 144.191C349.603 142.63 348.349 141.013 347.773 139.391C347.344 138.18 347.327 137.085 347.567 136.173C347.59 136.085 347.614 136.005 347.638 135.934L347.648 135.904L347.643 135.755C347.604 134.486 347.636 133.057 347.795 131.691C348.036 129.621 348.514 128.096 349.409 127.254L349.48 127.189C350.148 126.591 351.584 125.534 351.572 125.545C351.866 125.293 351.958 125.118 352.018 124.621C352.171 123.349 353.568 122.359 355.078 122.104Z" fill="#2E186A"/>
<path fill-rule="evenodd" clip-rule="evenodd" d="M419.108 137.186C419.076 137.058 412.03 128.832 411.805 129.024C411.581 129.216 401.941 133.505 401.717 133.857C401.493 134.177 401.141 136.13 402.101 137.922C403.062 139.715 404.151 143.844 408.507 144.164C412.862 144.484 419.108 137.186 419.108 137.186Z" fill="white"/>
<path fill-rule="evenodd" clip-rule="evenodd" d="M406.264 130.912C406.264 130.912 405.432 125.247 406.745 123.903C408.058 122.558 415.392 135.106 417.922 135.97" fill="white"/>
<path fill-rule="evenodd" clip-rule="evenodd" d="M406.057 123.232C406.668 122.607 407.414 122.759 408.143 123.277C408.548 123.566 409.006 124.009 409.549 124.62L409.778 124.881C410.43 125.631 410.986 126.336 412.241 127.997L413.759 130.011C416.201 133.238 417.56 134.799 418.205 135.051L418.233 135.061C418.735 135.233 419.003 135.778 418.831 136.28C418.659 136.782 418.113 137.05 417.611 136.878L417.524 136.847C416.367 136.403 415.081 134.943 412.323 131.299L410.263 128.568C409.344 127.359 408.864 126.758 408.329 126.141L408.207 126.002C407.856 125.601 407.553 125.288 407.307 125.068L407.22 124.993L407.218 124.999C407.073 125.459 406.977 126.211 406.966 127.147L406.965 127.27C406.961 128.041 407.009 128.875 407.09 129.709C407.107 129.879 407.124 130.041 407.141 130.194L407.191 130.597C407.201 130.678 407.21 130.738 407.215 130.773C407.292 131.298 406.929 131.785 406.404 131.863C405.879 131.94 405.391 131.577 405.314 131.052L405.27 130.727L405.232 130.413C405.214 130.249 405.195 130.076 405.178 129.895C405.091 129.002 405.04 128.106 405.043 127.262C405.051 125.357 405.311 123.996 406.057 123.232Z" fill="#2E186A"/>
<path fill-rule="evenodd" clip-rule="evenodd" d="M402.357 131.905C402.357 131.905 400.596 127.776 402.934 125.791C405.24 123.807 410.972 135.106 413.47 136.546" fill="white"/>
<path fill-rule="evenodd" clip-rule="evenodd" d="M402.307 125.064C403.361 124.156 404.6 124.579 405.929 125.794C406.761 126.555 407.663 127.638 408.842 129.231L409.251 129.789C409.366 129.947 409.486 130.112 409.614 130.29L410.927 132.114C412.822 134.732 413.376 135.383 413.951 135.714C414.41 135.979 414.568 136.566 414.303 137.026C414.038 137.485 413.45 137.643 412.99 137.378L412.83 137.282C411.95 136.738 411.372 136.026 408.908 132.601L407.871 131.158C407.752 130.994 407.64 130.84 407.531 130.691L407.305 130.383C406.192 128.879 405.351 127.869 404.631 127.211C404.233 126.847 403.903 126.624 403.669 126.544L403.585 126.516C403.575 126.513 403.57 126.513 403.565 126.515L403.556 126.523C403.038 126.963 402.763 127.592 402.697 128.405C402.639 129.117 402.747 129.911 402.965 130.7C403.016 130.882 403.069 131.052 403.122 131.207L403.192 131.403L403.241 131.528C403.449 132.016 403.222 132.58 402.734 132.788C402.246 132.996 401.682 132.769 401.474 132.281C401.378 132.058 401.245 131.688 401.113 131.212C400.84 130.224 400.703 129.218 400.782 128.25C400.886 126.964 401.368 125.86 402.307 125.064Z" fill="#2E186A"/>
<path fill-rule="evenodd" clip-rule="evenodd" d="M401.333 136.674C401.333 136.674 398.386 129.28 400.436 127.712C402.486 126.143 405.849 135.746 409.852 137.954" fill="white"/>
<path fill-rule="evenodd" clip-rule="evenodd" d="M399.852 126.949C400.48 126.469 401.227 126.471 401.921 126.863C402.397 127.132 402.859 127.58 403.375 128.224L403.517 128.405C403.852 128.839 404.212 129.355 404.659 130.034L406.219 132.443L406.427 132.757C408.003 135.122 409.177 136.485 410.316 137.114C410.781 137.37 410.949 137.954 410.693 138.418C410.437 138.883 409.852 139.051 409.388 138.795C407.861 137.953 406.522 136.383 404.726 133.668L404.275 132.977C403.867 132.348 403.289 131.449 403.148 131.233L402.977 130.973C402.533 130.304 402.188 129.816 401.874 129.424C401.522 128.984 401.231 128.695 401.017 128.56L400.962 128.528L400.944 128.549C400.624 128.941 400.568 130.1 400.876 131.739L400.9 131.863C401.034 132.544 401.219 133.271 401.443 134.022C401.586 134.503 401.738 134.97 401.892 135.411L401.984 135.671C402.023 135.779 402.059 135.88 402.094 135.974L402.225 136.319C402.422 136.811 402.181 137.37 401.688 137.566C401.195 137.762 400.636 137.522 400.44 137.029L400.365 136.835C400.319 136.714 400.269 136.579 400.215 136.432L400.175 136.319C399.979 135.773 399.784 135.183 399.601 134.57C399.361 133.765 399.161 132.979 399.014 132.232C398.517 129.699 398.639 127.877 399.852 126.949Z" fill="#2E186A"/>
<path fill-rule="evenodd" clip-rule="evenodd" d="M417.41 135.714C417.73 134.113 417.57 132.449 416.929 130.976C416.193 129.248 415.328 126.943 415.264 125.439C415.136 122.846 419.363 124.063 419.556 125.663C419.748 127.264 420.548 127.168 422.406 128.832C424.264 130.496 423.911 136.994 423.911 136.994C423.911 136.994 425.545 140.355 420.292 144.356C415.04 148.357 409.403 145.252 409.403 145.252C409.403 145.252 399.219 141.507 399.219 134.177C399.219 126.847 401.909 137.538 407.001 140.547" fill="white"/>
<path fill-rule="evenodd" clip-rule="evenodd" d="M414.304 125.486C414.211 123.6 415.677 122.732 417.45 123.032C418.96 123.287 420.357 124.277 420.509 125.549C420.566 126.019 420.652 126.201 420.909 126.432L420.956 126.473C420.944 126.462 422.38 127.519 423.047 128.117C423.986 128.958 424.482 130.502 424.73 132.608C424.879 133.881 424.919 135.208 424.892 136.409L424.883 136.746L424.88 136.833L424.89 136.862C424.905 136.91 424.921 136.961 424.937 137.016L424.96 137.101C425.201 138.013 425.184 139.108 424.754 140.319C424.178 141.942 422.924 143.558 420.874 145.12C420.515 145.393 420.148 145.641 419.774 145.863C416.73 147.672 413.496 147.724 410.497 146.738C409.866 146.531 409.377 146.32 409.058 146.156L409.003 146.127L408.796 146.046L408.594 145.962C408.229 145.81 407.825 145.627 407.39 145.415C406.15 144.81 404.909 144.086 403.745 143.24C400.339 140.761 398.258 137.749 398.258 134.177C398.258 132.75 398.348 131.914 398.612 131.404C398.883 130.88 399.412 130.577 400.017 130.738C400.372 130.832 400.641 131.048 400.926 131.378C401.354 131.875 403.397 135.23 403.88 135.935C405.116 137.742 406.287 139.009 407.49 139.72C407.947 139.99 408.098 140.579 407.828 141.036C407.558 141.492 406.969 141.643 406.512 141.373C405.062 140.517 403.759 139.128 402.423 137.206L402.294 137.019C401.95 136.517 401.085 135.121 400.395 134.031L400.184 133.699L400.183 133.746C400.181 133.848 400.18 133.954 400.18 134.065L400.179 134.177C400.179 137.019 401.917 139.534 404.876 141.687C405.941 142.462 407.087 143.13 408.233 143.689C408.577 143.857 408.898 144.004 409.192 144.13L409.337 144.191C409.423 144.227 409.502 144.259 409.572 144.287L409.735 144.351C409.765 144.362 409.795 144.375 409.824 144.389L409.94 144.449C409.994 144.476 410.07 144.512 410.167 144.556C410.437 144.677 410.749 144.799 411.098 144.914C413.615 145.742 416.291 145.698 418.792 144.212C419.103 144.028 419.409 143.821 419.71 143.592C421.476 142.246 422.499 140.928 422.943 139.677C423.237 138.848 423.248 138.145 423.102 137.59L423.082 137.518C423.063 137.455 423.05 137.419 423.047 137.414C422.976 137.267 422.943 137.105 422.952 136.942L422.961 136.732C422.962 136.7 422.963 136.664 422.964 136.625C423.001 135.44 422.97 134.094 422.821 132.833C422.625 131.169 422.242 129.975 421.764 129.547L421.669 129.463C421.043 128.923 419.768 127.985 419.706 127.932C419.044 127.365 418.718 126.751 418.601 125.778C418.572 125.535 417.895 125.055 417.129 124.926C416.427 124.807 416.201 124.941 416.224 125.398C416.27 126.474 416.812 128.203 417.669 130.258L417.81 130.594C418.526 132.238 418.712 134.101 418.352 135.902C418.248 136.422 417.742 136.759 417.221 136.655C416.701 136.551 416.363 136.045 416.468 135.525C416.742 134.155 416.615 132.745 416.104 131.491L415.882 130.964C414.946 128.718 414.362 126.845 414.304 125.486Z" fill="#2E186A"/>
<path fill-rule="evenodd" clip-rule="evenodd" d="M531.776 159.656C532.307 159.656 532.737 160.086 532.737 160.616C532.737 161.127 532.337 161.545 531.833 161.574L531.776 161.576H1.22447C0.693835 161.576 0.263672 161.146 0.263672 160.616C0.263672 160.104 0.663658 159.686 1.16801 159.657L1.22447 159.656H531.776Z" fill="#2E186A"/>
</svg>
