<svg width="20" height="20" viewBox="0 0 20 20" fill="none" xmlns="http://www.w3.org/2000/svg">
<path d="M18.8962 20.0001C19.5057 20.0001 20 19.5059 20 18.8962V1.10383C20 0.494141 19.5057 0 18.8962 0H1.10383C0.494062 0 0 0.494141 0 1.10383V18.8962C0 19.5059 0.494062 20.0001 1.10383 20.0001H18.8962Z" fill="#2F5DC1"/>
<path d="M13.7995 19.9999V12.2548H16.3993L16.7885 9.23645H13.7995V7.30926C13.7995 6.43535 14.0423 5.8398 15.2955 5.8398L16.8938 5.8391V3.13949C16.6173 3.1027 15.6685 3.02051 14.5648 3.02051C12.2602 3.02051 10.6826 4.42715 10.6826 7.01043V9.23645H8.07617V12.2548H10.6826V19.9999H13.7995Z" fill="white"/>
</svg>
