<svg width="20" height="20" viewBox="0 0 20 20" fill="none" xmlns="http://www.w3.org/2000/svg">
<path d="M3.12521 17.4609C3.12521 17.8066 3.40451 18.0859 3.75021 18.0859H9.33615V10.7422H3.12521V17.4609ZM10.6643 18.0859H16.2502C16.5959 18.0859 16.8752 17.8066 16.8752 17.4609V10.7422H10.6643V18.0859ZM17.1877 6.05469H14.3049C14.5705 5.63672 14.7268 5.14063 14.7268 4.60938C14.7268 3.12305 13.5178 1.91406 12.0315 1.91406C11.2229 1.91406 10.4944 2.27344 10.0002 2.83984C9.50607 2.27344 8.77756 1.91406 7.96896 1.91406C6.48264 1.91406 5.27365 3.12305 5.27365 4.60938C5.27365 5.14063 5.42795 5.63672 5.69553 6.05469H2.81271C2.46701 6.05469 2.18771 6.33398 2.18771 6.67969V9.41406H9.33615V6.05469H10.6643V9.41406H17.8127V6.67969C17.8127 6.33398 17.5334 6.05469 17.1877 6.05469ZM9.33615 5.97656H7.96896C7.21506 5.97656 6.60178 5.36328 6.60178 4.60938C6.60178 3.85547 7.21506 3.24219 7.96896 3.24219C8.72287 3.24219 9.33615 3.85547 9.33615 4.60938V5.97656ZM12.0315 5.97656H10.6643V4.60938C10.6643 3.85547 11.2776 3.24219 12.0315 3.24219C12.7854 3.24219 13.3987 3.85547 13.3987 4.60938C13.3987 5.36328 12.7854 5.97656 12.0315 5.97656Z" fill="#C6CBD2"/>
</svg>
