<svg width="21" height="20" viewBox="0 0 21 20" fill="none" xmlns="http://www.w3.org/2000/svg">
<path d="M4.59113 0C2.43585 0 0.671875 1.76393 0.671875 3.91925V16.0814C0.671875 18.2367 2.43581 20 4.59113 20H16.7533C18.9086 20 20.6719 18.2367 20.6719 16.0814V3.91925C20.6719 1.76397 18.9086 0 16.7533 0H4.59113ZM5.57688 3.3004C6.61029 3.3004 7.24683 3.97882 7.26648 4.87059C7.26648 5.74267 6.61025 6.44015 5.55689 6.44015H5.5375C4.52376 6.44015 3.86853 5.74271 3.86853 4.87059C3.86853 3.97884 4.54359 3.3004 5.57686 3.3004H5.57688ZM14.4824 7.46842C16.4698 7.46842 17.9597 8.76743 17.9597 11.5589V16.7702H14.9393V11.9083C14.9393 10.6866 14.5022 9.85307 13.4091 9.85307C12.5747 9.85307 12.0773 10.4149 11.8589 10.9576C11.7791 11.1518 11.7595 11.4229 11.7595 11.6946V16.7702H8.73916C8.73916 16.7702 8.7788 8.53433 8.73916 7.68156H11.7602V8.9686C12.1615 8.34933 12.8795 7.4684 14.4824 7.4684V7.46842ZM4.04669 7.68222H7.06707V16.7702H4.04669V7.68222Z" fill="#7575FE"/>
</svg>
