<svg width="16" height="18" viewBox="0 0 16 18" fill="none" xmlns="http://www.w3.org/2000/svg">
<path opacity="0.4" d="M11.4925 0.666687H4.50833C1.975 0.666687 0.5 2.15002 0.5 4.69169V13.3C0.5 15.8834 1.975 17.3334 4.50833 17.3334H11.4925C14.0667 17.3334 15.5 15.8834 15.5 13.3V4.69169C15.5 2.15002 14.0667 0.666687 11.4925 0.666687" fill="white"/>
<path fill-rule="evenodd" clip-rule="evenodd" d="M4.73337 4.54169V4.55002C4.37421 4.55002 4.08337 4.84169 4.08337 5.20002C4.08337 5.55835 4.37421 5.85002 4.73337 5.85002H7.22421C7.58337 5.85002 7.87504 5.55835 7.87504 5.19085C7.87504 4.83335 7.58337 4.54169 7.22421 4.54169H4.73337ZM11.2667 9.61669H4.73337C4.37421 9.61669 4.08337 9.32502 4.08337 8.96669C4.08337 8.60835 4.37421 8.31585 4.73337 8.31585H11.2667C11.625 8.31585 11.9167 8.60835 11.9167 8.96669C11.9167 9.32502 11.625 9.61669 11.2667 9.61669ZM11.2667 13.425H4.73335C4.48335 13.4584 4.24168 13.3334 4.10835 13.125C3.97501 12.9084 3.97501 12.6334 4.10835 12.425C4.24168 12.2084 4.48335 12.0917 4.73335 12.1167H11.2667C11.5992 12.15 11.85 12.4334 11.85 12.775C11.85 13.1075 11.5992 13.3917 11.2667 13.425Z" fill="white"/>
</svg>
