<svg width="20" height="20" viewBox="0 0 20 20" fill="none" xmlns="http://www.w3.org/2000/svg">
<path opacity="0.4" d="M1.66667 5.37249C1.66667 3.32999 3.35854 1.66666 5.43712 1.66666H9.57137C11.6457 1.66666 13.3333 3.32499 13.3333 5.36416V14.6275C13.3333 16.6708 11.6415 18.3333 9.56205 18.3333H5.42948C3.3543 18.3333 1.66667 16.675 1.66667 14.6358V13.8525V5.37249Z" fill="#C6CBD2"/>
<path d="M18.1491 9.54566L15.7776 7.1215C15.5325 6.8715 15.1381 6.8715 14.8938 7.12316C14.6503 7.37483 14.6511 7.78066 14.8954 8.03066L16.1948 9.35816H14.949H7.95704C7.61211 9.35816 7.33211 9.64566 7.33211 9.99983C7.33211 10.3548 7.61211 10.6415 7.95704 10.6415H16.1948L14.8954 11.969C14.6511 12.219 14.6503 12.6248 14.8938 12.8765C15.0163 13.0023 15.1762 13.0657 15.3369 13.0657C15.496 13.0657 15.6559 13.0023 15.7776 12.8782L18.1491 10.4548C18.2668 10.334 18.3333 10.1707 18.3333 9.99983C18.3333 9.82983 18.2668 9.6665 18.1491 9.54566Z" fill="#C6CBD2"/>
</svg>
