<svg width="161" height="59" viewBox="0 0 161 59" fill="none" xmlns="http://www.w3.org/2000/svg">
<path d="M31.878 30.0503C31.8917 29.8827 31.904 29.7475 31.9138 29.6108C31.9553 28.9901 31.9684 28.3659 32.0422 27.7479C32.1166 27.1209 32.5559 26.7103 33.1179 26.6614C33.6733 26.6132 34.2039 26.9484 34.3673 27.5455C34.4866 27.9807 34.5333 28.4464 34.5444 28.9001C34.5897 30.7875 34.221 32.6152 33.6653 34.4083C33.5665 34.7272 33.3919 35.0334 33.2014 35.3124C32.968 35.6553 32.6203 35.8359 32.1912 35.7386C31.766 35.6417 31.4777 35.3328 31.4626 34.9268C31.4395 34.2529 31.4769 33.5697 31.5742 32.9017C31.6299 32.5222 31.5654 32.3392 31.2134 32.1744C29.7099 31.4707 28.1448 31.028 26.4784 31.031C24.0172 31.0355 22.0005 32.0181 20.448 33.9116C19.0646 35.5984 19.4992 37.8003 21.4106 38.8927C22.4248 39.4722 23.5434 39.7112 24.6962 39.7532C28.2509 39.8818 31.5428 38.9889 34.515 37.054C36.4461 35.7972 38.0583 34.2083 38.9353 32.0158C39.5168 30.5622 39.8816 29.0533 39.7136 27.475C39.5176 25.6181 38.7258 24.0656 37.229 22.8967C35.1635 21.2832 32.855 20.5944 30.2467 21.0475C29.4827 21.1812 28.7216 21.3436 27.9678 21.5287C27.7209 21.589 27.5112 21.7847 27.2683 21.8765C27.106 21.9372 26.8973 21.976 26.7413 21.927C26.3393 21.8008 26.1354 21.3172 26.3024 20.9118C26.3804 20.7209 26.5048 20.5351 26.6518 20.3914C26.8426 20.2046 27.0579 20.0197 27.2972 19.9082C30.3813 18.469 33.4898 18.0073 36.6596 19.6822C39.1399 20.9935 40.969 22.8407 41.7481 25.6039C42.3152 27.6155 42.0593 29.5757 41.4833 31.5371C40.5874 34.5842 38.6188 36.8278 36.0829 38.5958C32.6231 41.0073 28.7285 42.1301 24.5191 42.1674C23.1732 42.1797 21.8626 41.9341 20.6554 41.3143C18.518 40.2178 17.372 38.4457 17.211 36.0636C17.1389 35.0004 17.4927 34.0264 18.0372 33.1211C20.1037 29.6919 24.1157 27.9261 28.0461 28.7107C29.3119 28.963 30.5374 29.3274 31.6675 29.9682C31.7184 29.9983 31.7758 30.0121 31.878 30.0503Z" fill="#EE6F56"/>
<path d="M43.6306 36.6329C43.9811 36.4528 44.352 36.3059 44.6763 36.0856C45.3154 35.6508 45.9293 35.1799 46.5502 34.7174C47.3813 34.0988 48.2445 33.5405 49.2438 33.248C49.7639 33.0948 50.2771 33.0736 50.759 33.3727C51.3105 33.7155 51.542 34.2566 51.6257 34.8815C51.7441 35.7572 51.5262 36.591 51.239 37.3943C50.6763 38.9678 50.0502 40.5176 49.4725 42.0859C48.9096 43.6147 48.4943 45.1883 48.2615 46.8031C48.1815 47.3608 48.1714 47.9413 48.2205 48.503C48.2832 49.2285 48.6612 49.7645 49.3566 50.0245C49.4548 50.0614 49.5417 50.1275 49.6245 50.2287C49.2568 50.431 48.88 50.4778 48.497 50.3796C47.7874 50.1998 47.3336 49.7128 47.0653 49.0414C46.681 48.0784 46.5751 47.0646 46.6539 46.0344C46.8002 44.1436 47.3108 42.3442 48.0382 40.6057C48.4822 39.5462 48.972 38.5048 49.4035 37.4403C49.6297 36.8827 49.7789 36.2939 49.9592 35.7168C49.987 35.6272 49.9963 35.5295 50.0039 35.4356C50.0478 34.85 49.9281 34.7301 49.4224 34.9894C48.688 35.3665 47.9773 35.7981 47.2751 36.2356C46.5905 36.6627 45.952 37.1684 45.2508 37.5614C44.8009 37.8134 44.287 37.9854 43.7818 38.0821C42.9823 38.2348 42.4077 37.7983 42.2136 36.9859C42.0339 36.2338 42.1618 35.4976 42.3733 34.7734C42.7987 33.3122 43.5872 32.0511 44.5085 30.8756C45.2424 29.9381 46.0593 29.0677 46.78 28.12C47.8263 26.746 48.1649 25.1386 48.0939 23.4295C48.0764 23.0148 47.944 22.6733 47.5649 22.418C47.0982 22.1045 46.9792 21.5975 47.1828 21.1758C47.3896 20.7451 47.8666 20.5701 48.4181 20.7239C48.4746 20.739 48.531 20.7541 48.5842 20.7781C51.8053 22.2425 54.5465 24.2491 56.0206 27.6798C56.5032 28.8043 56.8215 29.9797 57.0268 31.1893C57.0408 31.2691 57.06 31.3481 57.1033 31.5563C57.2004 31.4186 57.2454 31.3383 57.3058 31.2737C58.8395 29.6599 60.6091 28.4249 62.7142 27.7277C66.0076 26.6365 69.3 25.5426 72.5933 24.4527C73.7486 24.0705 74.8907 23.6622 75.8057 22.7986C76.0862 22.534 76.3497 22.2419 76.5728 21.9267C76.8509 21.5334 76.7986 21.1998 76.3828 20.9704C76.0246 20.772 75.614 20.6047 75.2142 20.5708C74.1346 20.4802 73.0599 20.5344 72.0309 20.9716C71.8848 21.0344 71.6182 21.0337 71.5284 20.9398C71.4327 20.8402 71.4073 20.5547 71.4794 20.4241C71.603 20.1979 71.793 19.9418 72.0132 19.8508C73.5088 19.2404 75.036 19.0131 76.585 19.6366C76.8282 19.7352 77.059 19.8917 77.2616 20.0631C78.0268 20.7093 78.2257 21.6349 77.6651 22.475C77.2592 23.0836 76.7317 23.6259 76.188 24.117C75.4033 24.8273 74.4499 25.2653 73.4647 25.605C70.8665 26.5008 68.2602 27.3711 65.6599 28.2616C64.6248 28.6168 63.5851 28.9639 62.5708 29.3786C60.4121 30.2604 58.6412 31.6698 57.3064 33.6265C57.0982 33.9323 56.9783 34.3031 56.821 34.6446C56.7181 34.8698 56.648 35.116 56.5148 35.3191C56.2893 35.6642 55.8985 35.7885 55.5333 35.6761C55.1681 35.565 54.9046 35.243 54.9009 34.832C54.8988 34.5746 54.9434 34.3106 55.0049 34.0597C55.2193 33.1901 55.2318 32.3277 55.0328 31.4507C54.5174 29.1701 53.5487 27.136 51.9397 25.4552C51.5393 25.0368 51.0815 24.6767 50.6383 24.2798C49.7517 26.7611 48.1243 28.6428 46.5347 30.5485C45.3656 31.9505 44.3 33.4187 43.7436 35.1987C43.6086 35.6286 43.566 36.0883 43.4823 36.5342C43.5317 36.5724 43.5818 36.6027 43.6306 36.6329Z" fill="#EE6F56"/>
<path d="M125.893 43.8833C125.068 44.2018 124.347 44.1736 123.632 43.9308C122.023 43.3821 121.089 41.9782 121.201 40.2354C121.32 38.4027 122.156 36.9125 123.547 35.7106C124.31 35.0509 125.179 34.5525 126.104 34.1428C126.242 34.0827 126.393 33.9295 126.429 33.7924C126.86 32.1176 127.29 30.4428 127.678 28.7594C127.895 27.8171 128.04 26.8588 128.204 25.9045C128.236 25.7187 128.202 25.5225 128.199 25.2332C127.777 25.3758 127.395 25.4529 127.063 25.6257C125.83 26.265 124.617 26.9415 123.391 27.5929C122.476 28.0798 121.559 28.5653 120.627 29.0216C120.339 29.1624 120.005 29.2332 119.683 29.2834C118.778 29.4236 118.097 29.0205 117.864 28.1459C117.71 27.5706 117.686 26.964 117.58 26.3748C117.541 26.1577 117.464 25.9363 117.351 25.7475C117.191 25.4811 117.136 25.2373 117.334 24.9797C117.517 24.7425 117.891 24.6381 118.156 24.8289C118.4 25.0041 118.639 25.2515 118.752 25.5179C118.921 25.9162 118.981 26.3603 119.081 26.786C119.131 26.9989 119.172 27.2149 119.206 27.4315C119.252 27.7192 119.408 27.8172 119.673 27.6911C120.505 27.2967 121.348 26.9223 122.158 26.4879C123.525 25.7552 124.854 24.9505 126.235 24.2418C126.796 23.9539 127.434 23.7564 128.061 23.6585C129.103 23.4938 129.81 24.0823 129.939 25.1101C130.058 26.053 129.883 26.9771 129.673 27.8856C129.276 29.6039 128.834 31.3108 128.411 33.0232C128.382 33.143 128.362 33.2661 128.33 33.4266C128.796 33.3626 129.221 33.2954 129.646 33.2498C130.87 33.1178 132.084 33.1619 133.279 33.4885C134.649 33.8635 135.769 34.6156 136.668 35.6882C138.254 37.5833 137.859 40.1242 135.762 41.4417C134.691 42.1146 133.519 42.5704 132.243 42.6588C129.481 42.8501 126.6 41.0648 126.217 37.8302C126.204 37.7184 126.184 37.6085 126.159 37.4422C125.182 38.2017 124.43 39.061 123.993 40.1623C123.447 41.5362 123.577 42.0789 124.699 43.0526C124.944 43.2648 125.23 43.432 125.497 43.618C125.598 43.6861 125.7 43.753 125.893 43.8833ZM132.082 35.3516C130.863 35.2676 129.689 35.5209 128.564 35.9907C127.734 36.3368 127.9 36.2078 127.922 36.9938C127.948 37.9776 128.133 38.9183 128.836 39.6923C130.701 41.7514 133.499 41.4815 135.325 39.8834C136.144 39.1659 136.167 37.9862 135.452 37.1272C134.584 36.0901 133.467 35.4835 132.082 35.3516Z" fill="#EE6F56"/>
<path d="M116.477 34.6859C116.781 34.5632 117.069 34.4961 117.296 34.346C117.741 34.0512 118.166 33.7251 118.574 33.3827C119.018 33.011 119.405 32.5676 119.873 32.2302C120.214 31.9852 120.633 31.816 121.044 31.6982C121.395 31.5979 121.728 31.7589 121.956 32.0539C122.177 32.341 122.237 32.6929 122.035 32.9728C121.612 33.5657 121.511 34.2591 121.322 34.9207C120.43 38.0515 119.854 41.2403 119.532 44.4758C119.365 46.1495 119.558 47.7682 120.277 49.3169C120.471 49.7357 120.614 50.175 120.536 50.7228C120.343 50.6401 120.165 50.5972 120.031 50.4982C119.839 50.3574 119.655 50.1924 119.511 50.0058C118.341 48.4861 117.673 46.8014 117.669 44.8807C117.665 42.8236 118.021 40.8133 118.422 38.8091C118.666 37.5892 118.977 36.3822 119.27 35.118C119.155 35.1991 119.06 35.2645 118.968 35.3326C118.309 35.8183 117.596 36.2003 116.773 36.3515C115.803 36.5291 115.118 36.1509 114.802 35.2376C114.637 34.7592 114.539 34.2603 114.401 33.773C114.278 33.3328 114.152 33.2667 113.741 33.48C113.448 33.6309 113.183 33.8337 112.912 34.0211C112.283 34.4546 111.673 34.9157 111.024 35.3204C110.67 35.5407 110.267 35.71 109.864 35.8284C108.596 36.2024 107.485 35.5528 107.251 34.2816C107.152 33.7442 107.197 33.1849 107.139 32.6385C107.089 32.1496 107.021 31.6582 106.897 31.1831C106.802 30.8184 106.688 30.8078 106.343 30.9967C105.684 31.3571 105.289 31.915 105.072 32.6077C104.777 33.5483 104.758 34.5112 104.874 35.4765C104.959 36.1751 105.035 36.8744 105.343 37.538C105.613 38.1215 105.163 38.7097 104.471 38.755C103.902 38.7917 103.426 38.5645 103.142 38.1062C102.805 37.5618 102.468 36.9914 102.288 36.3878C101.78 34.6901 101.849 32.9849 102.472 31.3248C102.999 29.921 103.95 28.8764 105.403 28.3266C106.915 27.7543 108.271 28.275 109.015 29.682C109.536 30.6667 109.584 31.7305 109.58 32.8026C109.579 33.0678 109.577 33.3317 109.575 33.6861C109.874 33.5034 110.119 33.3833 110.33 33.2207C110.817 32.8451 111.261 32.4139 111.77 32.0697C112.255 31.7411 112.768 31.4023 113.324 31.2306C114.663 30.8152 115.912 31.5579 116.223 32.8924C116.322 33.317 116.342 33.7588 116.4 34.1937C116.418 34.334 116.443 34.4749 116.477 34.6859Z" fill="#EE6F56"/>
<path d="M39.5845 6.16928C39.4263 7.3803 39.277 8.59332 39.1086 9.80349C38.9649 10.8357 38.5636 11.7736 38.0056 12.6474C37.7712 13.014 37.4942 13.3308 36.9779 13.1846C36.9361 13.1735 36.8855 13.19 36.8395 13.1991C34.1857 13.7196 31.5308 14.2387 28.8779 14.7644C28.3844 14.8618 27.8962 14.9904 27.4054 15.1034C27.1653 15.1585 26.9271 15.2213 26.6844 15.2607C25.2796 15.4844 24.3755 14.6471 24.5775 13.2481C24.7415 12.1083 25.0167 10.9865 25.2012 9.84962C25.5357 7.79418 25.8561 5.73631 26.147 3.67475C26.3061 2.54738 26.7271 2.17927 27.8633 1.96327C30.4629 1.47179 33.0956 1.33654 35.7216 1.12618C36.7237 1.04582 37.7361 1.03057 38.7403 1.06865C39.6386 1.10197 40.0099 1.56675 39.993 2.45758C39.9881 2.72459 39.9753 2.99352 39.9446 3.25843C39.8345 4.22909 39.7152 5.2003 39.6 6.17054C39.596 6.1715 39.5909 6.17109 39.5845 6.16928ZM27.3005 12.8464C27.4435 12.84 27.5467 12.8446 27.6462 12.8308C30.5457 12.4242 33.4455 12.015 36.3431 11.6005C36.4138 11.5908 36.5159 11.513 36.5328 11.4488C36.6974 10.795 36.8864 10.1432 36.9935 9.47952C37.2734 7.74489 37.5085 6.00276 37.7755 4.2658C37.8633 3.697 37.9971 3.1358 38.1148 2.54886C37.9942 2.55061 37.9133 2.54274 37.8348 2.55305C36.4887 2.7391 35.1383 2.89909 33.7984 3.12035C32.2039 3.38387 30.618 3.7008 29.0288 3.99433C28.7935 4.03816 28.6356 4.11657 28.6167 4.41201C28.4536 6.98665 27.9259 9.50717 27.4494 12.0357C27.4 12.2927 27.3542 12.5525 27.3005 12.8464Z" fill="#EE6F56"/>
<path d="M107.523 11.6728C107.061 12.2534 106.644 12.8042 106.197 13.3312C105.89 13.6934 105.572 14.0587 105.208 14.3576C104.416 15.0073 103.487 14.7768 103.198 13.7812C102.971 12.9977 102.958 12.1461 102.854 11.3245C102.841 11.2193 102.847 11.1116 102.843 10.9525C102.689 11.0133 102.563 11.0605 102.438 11.1117C100.951 11.7263 99.4589 12.3378 97.8599 12.5347C97.3495 12.5972 96.8047 12.5756 96.3047 12.4627C95.1468 12.2015 94.5747 11.1589 94.9357 9.97861C95.0918 9.46792 95.3147 8.94132 95.635 8.52947C96.2109 7.78863 96.8157 7.04211 97.5273 6.45118C99.8264 4.5422 102.383 3.09618 105.187 2.14822C105.714 1.96955 106.275 1.88839 106.824 1.79159C107.134 1.73667 107.425 1.81652 107.647 2.07891C107.697 2.13909 107.775 2.18544 107.848 2.21412C108.595 2.50326 109.19 3.01635 109.612 3.68896C110.275 4.74706 110.946 5.81374 111.477 6.94521C112.182 8.4446 112.354 10.0621 112.007 11.7162C111.958 11.9513 111.886 12.1857 111.794 12.4065C111.433 13.2664 110.67 13.6702 109.795 13.4574C108.91 13.2411 108.2 12.7494 107.701 11.9516C107.652 11.8715 107.6 11.7939 107.523 11.6728ZM104.675 12.4422C104.701 12.451 104.728 12.4585 104.753 12.4672C104.843 12.3625 104.944 12.2665 105.025 12.1543C105.649 11.2785 106.27 10.3998 106.893 9.52255C107.179 9.11993 107.535 8.83783 108.046 8.91547C108.568 8.99405 108.835 9.37366 109.006 9.85485C109.113 10.16 109.204 10.4772 109.358 10.7567C109.479 10.9762 109.685 11.1466 109.853 11.3378C109.892 11.317 109.931 11.2961 109.97 11.2753C109.99 11.0246 110.021 10.7761 110.03 10.5244C110.064 9.48712 109.774 8.55155 109.225 7.6924C108.321 6.2729 107.351 4.90941 106.211 3.68036C106.027 3.48109 105.902 3.44018 105.658 3.56316C103.53 4.63556 101.509 5.88629 99.6587 7.42189C98.7622 8.166 97.9332 8.98237 97.2552 9.9499C97.1286 10.1305 97.0238 10.3276 96.8693 10.5834C97.0915 10.6015 97.2393 10.6349 97.3831 10.6212C97.7526 10.5846 98.1289 10.5578 98.4896 10.471C100.126 10.0729 101.74 9.62488 103.162 8.6125C103.876 8.10453 104.672 8.5365 104.775 9.4275C104.802 9.65397 104.796 9.8858 104.785 10.1146C104.762 10.5614 104.721 11.0066 104.699 11.4534C104.68 11.7803 104.681 12.1116 104.675 12.4422Z" fill="#EE6F56"/>
<path d="M96.603 29.864C96.7447 29.0171 96.8785 28.2203 97.0241 27.3581C96.8514 27.4403 96.7306 27.4981 96.6096 27.5572C95.9984 27.8521 95.3695 28.0818 94.6835 28.0884C93.6078 28.0996 93.1047 27.4902 93.3029 26.4203C93.5391 25.1506 94.161 24.0814 95.0173 23.16C96.2514 21.8312 97.088 20.2735 97.6899 18.5718C97.8225 18.1976 97.9134 17.8031 97.971 17.4098C98.0327 16.9804 97.9195 16.8503 97.4978 16.9031C96.7202 16.9997 95.9116 17.0392 95.1808 17.297C94.0939 17.6806 93.0505 18.2043 92.0162 18.7262C91.3959 19.0386 90.9154 19.547 90.6096 20.1984C90.364 20.7221 90.4234 20.9168 90.8581 21.2852C90.9847 21.3918 91.0475 21.5764 91.1401 21.7244C90.981 21.7973 90.8254 21.9212 90.6608 21.9364C89.3695 22.0549 88.5789 21.1984 88.7834 19.8949C88.9377 18.9099 89.4237 18.0832 90.1826 17.4791C92.3078 15.7884 94.7057 14.8404 97.4303 14.8646C97.4991 14.865 97.5687 14.8733 97.6384 14.879C99.1381 15.0063 99.9815 15.9829 99.8095 17.5141C99.7357 18.1701 99.5351 18.8301 99.2909 19.4462C98.5935 21.2064 97.6555 22.8183 96.3839 24.2312C95.8984 24.7705 95.549 25.4392 95.149 26.0569C95.0701 26.1793 95.0371 26.3327 94.9549 26.5432C95.16 26.5013 95.3142 26.5048 95.4356 26.4405C95.9961 26.1402 96.5535 25.8319 97.0985 25.5043C97.3052 25.3793 97.4784 25.197 97.6661 25.0393C98.0483 24.7193 98.3902 24.6587 98.7139 24.8528C99.0438 25.0501 99.1368 25.4128 99.0528 25.9119C98.7566 27.6514 98.4654 29.3927 98.1957 31.137C98.0794 31.891 97.562 32.2729 96.8622 32.0091C94.9898 31.3025 93.1093 31.3991 91.2468 31.9965C89.3384 32.6085 87.5625 33.5212 85.9311 34.7124C85.699 34.8821 85.4839 35.0779 85.2307 35.2875C85.3597 35.3812 85.4489 35.4457 85.5369 35.5088C85.3664 36.0035 84.7713 36.18 84.3173 35.8608C83.914 35.5783 83.7454 35.1561 83.869 34.6888C83.9686 34.312 84.1309 33.9181 84.3733 33.6218C84.732 33.1827 85.1375 32.7488 85.6066 32.4437C87.9021 30.9502 90.3426 29.8236 93.1017 29.5801C94.1342 29.4886 95.1563 29.5394 96.1686 29.774C96.2962 29.8065 96.4308 29.8305 96.603 29.864Z" fill="#EE6F56"/>
<path d="M148.494 27.6815C148.715 27.3749 148.9 27.1183 149.085 26.8631C149.202 26.7004 149.314 26.532 149.438 26.3751C150.22 25.3788 151.004 25.1789 152.106 25.7192C152.538 25.932 152.945 26.1983 153.369 26.4289C154.445 27.0175 155.484 26.7324 156.11 25.6279C156.79 24.4272 157.117 23.1169 156.953 21.7268C156.603 18.7501 155.085 16.5727 152.704 15.0179C152.231 14.7091 151.729 14.4482 151.255 14.142C151.044 14.0055 150.856 13.8246 150.678 13.6405C150.319 13.2707 150.36 12.7983 150.827 12.5939C151.192 12.4342 151.637 12.3154 152.016 12.3767C155.886 12.9953 158.708 15.6222 159.08 19.576C159.294 21.8459 158.917 24.0241 157.978 26.0901C157.359 27.4522 156.383 28.3626 154.937 28.6463C154.168 28.7969 153.432 28.6522 152.732 28.3341C152.212 28.097 151.707 27.8173 151.21 27.5278C150.98 27.3938 150.835 27.427 150.693 27.6434C150.424 28.0613 150.161 28.4865 149.873 28.891C148.855 30.3292 147.761 30.3289 146.756 28.8929C146.475 28.491 146.213 28.0748 145.908 27.6153C145.711 27.8815 145.536 28.1124 145.368 28.3491C144.744 29.2285 144.026 29.9995 143.078 30.4907C142.753 30.6604 142.407 30.811 142.055 30.8924C141.258 31.0766 140.568 30.7196 140.212 29.9512C139.749 28.9502 139.753 27.9156 140.128 26.8796C140.265 26.5011 140.529 26.3278 140.835 26.3779C141.187 26.4344 141.324 26.7026 141.366 27.0321C141.436 27.5651 141.47 28.1046 141.557 28.635C141.631 29.0889 141.711 29.1139 142.098 28.8964C142.687 28.5654 143.138 28.0747 143.53 27.5157C143.869 27.0319 144.186 26.5264 144.559 26.0704C145.698 24.6739 146.873 24.7709 147.781 26.3236C148.026 26.7411 148.232 27.1805 148.494 27.6815Z" fill="#EE6F56"/>
<path d="M70.6414 35.0896C70.7543 33.7666 71.2071 32.5786 71.9815 31.519C72.8201 30.3691 73.8198 29.3973 75.0041 28.6383C76.8306 27.4666 78.7605 26.5444 80.8701 26.0835C82.2815 25.7753 83.6919 25.4501 85.1165 25.2281C87.6961 24.8252 89.8924 23.6404 91.8285 21.8671C92.2284 21.5002 92.573 21.0973 92.7471 20.5573C92.8401 20.2675 93.0274 20.0614 93.3543 20.0775C93.6863 20.0941 93.9169 20.3015 93.9456 20.6156C93.9817 20.9945 93.974 21.3987 93.881 21.7658C93.6852 22.5424 93.2096 23.1573 92.6768 23.7296C90.8558 25.6864 88.6816 26.9726 86.1082 27.5162C84.5832 27.8387 83.0589 28.1678 81.5365 28.5049C79.6784 28.9169 77.9628 29.7033 76.3622 30.7519C74.799 31.776 73.5813 33.1152 72.9986 34.983C72.9354 35.1861 72.8868 35.3944 72.8482 35.6047C72.5817 37.0633 73.0012 38.207 74.2385 39.0139C75.2528 39.6755 76.2985 40.1838 77.5427 40.0546C77.6076 40.0481 77.679 40.1011 77.7464 40.1262C77.6805 40.2073 77.6308 40.3212 77.5463 40.3667C76.4369 40.9654 75.3003 40.937 74.1589 40.5034C73.8281 40.3782 73.505 40.2222 73.196 40.0477C71.2905 38.9637 70.4592 37.3424 70.6414 35.0896Z" fill="#EE6F56"/>
<path d="M150.218 45.7021C150.086 46.5019 149.953 47.3017 149.819 48.1015C149.814 48.1352 149.802 48.1697 149.803 48.2028C149.811 48.4402 149.881 48.7132 149.58 48.8217C149.25 48.9404 148.906 48.9175 148.626 48.7009C148.073 48.2721 147.51 47.8475 147.007 47.3645C145.507 45.9238 144.037 44.4539 142.549 43.0015C142.032 42.4958 141.498 42.0065 140.969 41.5125C140.129 40.7297 140.033 40.1241 140.704 39.1933C141.656 37.8725 142.622 36.5593 143.639 35.2881C143.965 34.8815 144.432 34.5484 144.899 34.3015C145.674 33.8922 146.478 34.0311 147.127 34.5792C147.591 34.9704 148.017 35.4573 148.315 35.9831C148.702 36.6656 149.01 37.4102 149.24 38.161C149.993 40.6124 150.369 43.1191 150.218 45.7021ZM142.635 39.8458C144.897 41.6855 146.663 43.8901 148.328 46.1966C148.371 46.0393 148.382 45.9059 148.37 45.7732C148.293 44.8715 148.22 43.9688 148.129 43.0671C147.963 41.4514 147.662 39.8614 146.995 38.3695C146.745 37.8095 146.408 37.2805 146.05 36.7802C145.758 36.3714 145.019 36.4404 144.724 36.8559C144.127 37.6989 143.533 38.5435 142.938 39.3879C142.834 39.5365 142.738 39.6895 142.635 39.8458Z" fill="#EE6F56"/>
<path d="M11.4454 42.8128C11.0315 43.0656 10.675 43.2983 10.301 43.5064C9.9035 43.728 9.5051 43.9613 9.07901 44.1236C7.99225 44.5367 7.02589 44.1223 6.60652 43.0888C6.32178 42.389 6.31431 41.6587 6.36802 40.9308C6.51811 38.9341 6.95431 36.9865 7.49914 35.0582C7.90129 33.6316 8.31432 32.2084 8.72052 30.7834C8.8805 30.2235 9.32906 29.8881 9.88289 29.9215C10.4339 29.9547 10.902 30.3389 10.9509 30.9028C10.9869 31.3179 10.9556 31.7534 10.8543 32.1574C10.3227 34.2656 9.74593 36.3637 9.21168 38.4704C8.97524 39.4038 8.79212 40.3506 8.60366 41.2943C8.54405 41.598 8.54767 41.9132 8.51558 42.3072C8.73658 42.1969 8.8709 42.1404 8.99401 42.0675C9.66992 41.6637 10.3384 41.249 11.018 40.8507C11.3886 40.6334 11.7648 40.4164 12.1599 40.2399C13.0849 39.8267 13.9852 40.3497 13.9561 41.3065C13.9354 41.9723 13.8117 42.6349 13.7325 43.2985C13.3441 46.5253 12.9558 49.7521 12.5659 52.98C12.4926 53.5884 12.3935 54.1895 12.0323 54.7187C11.7489 55.1337 11.5104 55.1325 11.2385 54.7033C10.8084 54.0241 10.8006 53.264 10.7514 52.5147C10.5578 49.5659 10.8996 46.6541 11.3467 43.751C11.3856 43.4962 11.4232 43.24 11.4579 42.9849C11.4606 42.9515 11.4524 42.9158 11.4454 42.8128Z" fill="#EE6F56"/>
<path d="M50.6338 15.1263C49.8527 15.3222 49.1346 15.5026 48.415 15.6841C47.3626 15.9491 46.2961 16.2141 45.2168 15.9413C44.6433 15.7956 44.059 15.5618 43.571 15.2331C42.4611 14.4864 42.2875 13.2919 43.0485 12.1915C43.4793 11.5677 44.0588 11.1037 44.7015 10.7155C45.683 10.1237 46.7235 9.64204 47.8357 9.38455C49.2017 9.06811 50.5838 8.79023 51.9751 8.61971C53.334 8.45297 54.6902 8.58783 55.9801 9.26831C56.198 8.54753 56.4137 7.85355 56.617 7.1547C56.7436 6.71933 56.8501 6.27847 56.9666 5.84099C57.0368 5.57827 57.1495 5.34471 57.4739 5.36599C57.8122 5.38841 57.9559 5.64158 57.9228 5.92273C57.8391 6.63517 57.7361 7.34732 57.5816 8.04629C57.3965 8.88533 57.1496 9.71034 56.9278 10.5413C56.7709 11.1283 56.1762 11.3997 55.7502 11.0041C54.9042 10.2159 53.8877 10.1344 52.8493 10.227C50.2914 10.4567 47.8786 11.1746 45.6915 12.557C45.3694 12.7607 45.0648 13.0005 44.7809 13.2561C44.4484 13.5552 44.4715 13.665 44.8587 13.9084C45.4203 14.2624 46.0536 14.4309 46.694 14.3392C48.163 14.1288 49.6296 13.8848 51.0817 13.583C51.8587 13.4215 52.3324 13.7363 52.2426 14.5394C52.1726 15.1631 52.053 15.7801 51.9563 16.4003C51.9371 16.5246 51.9205 16.6504 51.8944 16.8448C52.0528 16.7755 52.1665 16.7347 52.2712 16.679C52.7838 16.406 53.2876 16.1157 53.808 15.8575C54.4433 15.5432 54.9725 15.7764 55.1569 16.4593C55.2712 16.8848 55.3212 17.3268 55.4144 17.7583C55.5243 18.2694 55.634 18.4042 56.1577 18.4199C56.8763 18.4399 57.5962 18.3804 58.3141 18.3759C58.589 18.3739 58.8796 18.3835 59.133 18.4722C59.284 18.5256 59.462 18.7353 59.4753 18.8879C59.4884 19.0418 59.3508 19.2657 59.212 19.3623C59.0308 19.4901 58.7875 19.5614 58.5632 19.5894C57.8263 19.6835 57.0879 19.7659 56.3471 19.8148C56.0515 19.8344 55.7426 19.7809 55.4501 19.716C54.7439 19.5596 54.2718 19.1307 54.0842 18.4231C53.9917 18.0778 53.9293 17.7247 53.8416 17.3206C53.5543 17.4745 53.2842 17.6233 53.0096 17.7628C52.6468 17.9464 52.2912 18.1512 51.9136 18.2951C51.0259 18.6338 50.3282 18.1532 50.3574 17.1961C50.3752 16.6311 50.5019 16.0686 50.5799 15.5047C50.5921 15.4017 50.6081 15.3002 50.6338 15.1263Z" fill="#EE6F56"/>
<path d="M156.47 51.4248C156.251 50.2302 155.979 49.0564 155.832 47.8665C155.685 46.6726 155.664 45.4628 155.585 44.222C155.504 44.2718 155.447 44.3025 155.396 44.3403C154.503 45.0262 153.519 44.9199 152.819 44.0256C152.253 43.302 151.88 42.4592 151.739 41.5528C151.566 40.4328 151.513 39.2925 151.39 38.1635C151.286 37.2103 151.155 36.2602 151.039 35.3086C151.011 35.0861 150.966 34.8624 150.973 34.6402C150.981 34.3211 151.133 34.0702 151.425 33.9367C151.715 33.8043 152.031 33.821 152.235 34.0511C152.475 34.3248 152.735 34.6474 152.811 34.9917C153.023 35.934 153.194 36.8927 153.287 37.8555C153.413 39.1629 153.396 40.4876 153.755 41.7642C153.867 42.1612 154.011 42.549 154.16 42.932C154.264 43.1985 154.445 43.2355 154.63 43.0056C154.96 42.5922 155.284 42.1744 155.598 41.748C155.886 41.3599 156.165 40.9437 156.725 41.1361C157.274 41.3249 157.295 41.8298 157.302 42.3112C157.329 44.4099 157.338 46.5085 157.373 48.6078C157.392 49.7283 157.609 50.8192 157.957 51.88C158.117 52.3674 157.908 52.7434 157.361 52.8024C156.545 52.8919 155.723 52.9376 154.904 52.994C153.355 53.0998 151.806 53.2068 150.3 53.6293C149.734 53.7889 149.178 54.0096 148.643 54.2582C147.95 54.5792 147.409 55.0986 147.038 55.785C146.719 56.3736 146.417 56.9714 146.089 57.5539C146.053 57.6178 145.837 57.6645 145.798 57.6233C145.64 57.4585 145.478 57.2762 145.392 57.0674C145.141 56.4508 145.184 55.8096 145.363 55.1835C145.476 54.7865 145.635 54.4011 145.795 54.0197C146.332 52.7453 147.283 51.9278 148.598 51.7047C149.837 51.4951 151.101 51.4029 152.358 51.3637C153.675 51.3229 154.995 51.4055 156.314 51.433C156.39 51.4327 156.467 51.4259 156.47 51.4248Z" fill="#EE6F56"/>
<path d="M123.651 13.4526C123.72 13.1187 123.787 12.7936 123.857 12.47C123.892 12.312 123.917 12.1494 123.974 11.9996C124.073 11.7384 124.261 11.5661 124.557 11.6081C124.85 11.6497 125.028 11.8583 125.005 12.1398C124.956 12.7471 124.927 13.3689 124.771 13.9535C124.436 15.2013 124.03 16.4306 123.643 17.6639C123.586 17.8494 123.489 18.0254 123.386 18.1918C123.34 18.266 123.218 18.3593 123.158 18.343C123.085 18.323 122.995 18.1983 122.993 18.1164C122.983 17.794 122.975 17.4679 123.022 17.15C123.133 16.3843 123.274 15.6223 123.4 14.8592C123.413 14.7811 123.414 14.702 123.424 14.5816C123.254 14.6021 123.099 14.6291 122.943 14.6394C121.419 14.7322 119.956 14.4765 118.594 13.7861C116.586 12.7674 115.886 11.0255 116.643 8.91104C116.858 8.30828 117.129 7.68959 117.52 7.1905C119.79 4.29933 122.691 2.77685 126.453 3.39085C128.124 3.66354 129.54 4.42727 130.418 5.97421C131.537 7.94673 131.179 10.2252 129.432 11.6758C128.816 12.1872 128.082 12.564 127.389 12.9798C127.209 13.0877 127.112 13.1946 127.039 13.4005C126.579 14.7058 126.096 16.0028 125.609 17.2982C125.546 17.4666 125.426 17.6202 125.306 17.7585C125.099 17.9957 124.83 17.9495 124.763 17.6429C124.695 17.3323 124.646 16.9926 124.698 16.6854C124.96 15.138 125.227 13.5899 125.555 12.0556C125.758 11.1072 126.428 10.9589 127.127 11.6757C127.869 11.195 128.629 10.7297 129.138 9.96704C130.249 8.29874 129.657 6.08459 127.853 5.17696C126.693 4.5923 125.451 4.42858 124.197 4.70045C121.75 5.22868 119.81 6.52698 118.549 8.71786C118.29 9.16897 118.13 9.69589 118.019 10.2089C117.865 10.9213 118.108 11.5397 118.71 11.9755C118.989 12.1782 119.285 12.3733 119.602 12.5038C120.887 13.0296 122.238 13.2877 123.651 13.4526Z" fill="#EE6F56"/>
<path d="M57.2 46.9055C57.4229 44.4692 57.999 42.0969 58.5886 39.727C58.8755 38.572 59.1545 37.4137 59.4242 36.2534C59.529 35.7997 59.7434 35.4357 60.2073 35.2586C61.8247 34.6391 63.4568 34.0572 65.1907 33.8091C65.6276 33.747 66.0903 33.8342 66.5408 33.8553C66.6504 33.8603 66.7599 33.8835 66.8687 33.8807C67.5495 33.858 67.9467 34.2172 67.8848 34.8762C67.8347 35.4255 67.7489 35.9784 67.613 36.5129C67.0769 38.6267 66.5141 40.7345 65.9634 42.8446C65.9257 42.9912 65.8586 43.1485 65.8795 43.2909C65.9436 43.7218 65.7155 43.9546 65.3751 44.1821C63.9077 45.1602 62.4227 46.1199 61.0094 47.1663C60.2696 47.7141 59.668 48.4307 58.9947 49.062C58.7683 49.2741 58.5406 49.5016 58.2695 49.6462C57.73 49.9343 57.2629 49.7178 57.2038 49.1258C57.1415 48.5074 57.1763 47.8801 57.1727 47.2574C57.1727 47.1402 57.1904 47.0232 57.2 46.9055ZM65.8324 35.3509C64.4236 35.7088 63.0845 36.0438 61.7508 36.3974C61.6578 36.4223 61.5593 36.581 61.5437 36.6891C61.4371 37.3978 61.4331 38.1306 61.2468 38.8172C60.6739 40.9333 60.0316 43.0333 59.4187 45.1396C59.2568 45.6941 59.1028 46.2506 58.9367 46.8399C59.0245 46.8119 59.0531 46.8116 59.0692 46.7973C60.5973 45.4075 62.4193 44.3944 64.1023 43.2047C64.2104 43.1276 64.3102 42.969 64.3177 42.8433C64.4296 41.1194 64.7947 39.4382 65.2013 37.7643C65.3944 36.9767 65.6114 36.1962 65.8324 35.3509Z" fill="#EE6F56"/>
<path d="M121.946 22.9098C122.553 22.366 123.115 21.8479 123.697 21.3492C123.808 21.2547 124.026 21.1594 124.142 21.1983C124.281 21.2449 124.458 21.4453 124.446 21.5621C124.424 21.7804 124.326 22.0208 124.175 22.1909C123.838 22.5684 123.442 22.9033 123.082 23.2648C122.799 23.5478 122.536 23.8453 122.265 24.1375C121.837 24.6006 121.271 24.5486 120.884 24.0533C120.192 23.1683 119.47 22.302 118.749 21.4347C118.693 21.3677 118.548 21.3194 118.453 21.327C115.806 21.5434 113.156 21.7371 110.516 22.0035C109.075 22.1486 107.652 22.4247 106.22 22.6317C105.824 22.689 105.422 22.7362 105.021 22.7342C104.735 22.7332 104.417 22.6991 104.168 22.5834C103.532 22.2881 103.441 21.5167 103.977 21.1001C104.139 20.9744 104.356 20.872 104.565 20.8338C106.276 20.5211 107.975 20.1192 109.706 19.9519C112.275 19.7044 114.867 19.6272 117.45 19.4774C117.862 19.4533 118.275 19.4292 118.687 19.3981C119.41 19.3439 119.814 19.5664 120.164 20.1351C120.732 21.0512 121.33 21.9521 121.946 22.9098Z" fill="#EE6F56"/>
<path d="M19.2769 3.64145C20.1903 3.78509 21.3393 3.95672 22.4849 4.15326C22.7495 4.19872 23.0131 4.30705 23.2521 4.42849C23.7181 4.6666 23.9256 5.10647 23.7944 5.49483C23.6559 5.90526 23.2685 6.094 22.6938 6.05349C21.2338 5.94841 19.7745 5.8006 18.3145 5.76225C16.7235 5.72077 15.1395 5.8473 13.607 6.25874C12.9171 6.44424 12.2722 6.7039 11.8152 7.23944C11.4163 7.70545 11.4203 7.85936 11.989 8.1436C12.6827 8.48963 13.4134 8.77196 14.1231 9.09035C14.3926 9.21049 14.6736 9.32653 14.9061 9.49401C15.208 9.70994 15.3099 10.0204 15.1801 10.3572C15.0557 10.6794 14.7776 10.8506 14.4095 10.8546C14.1506 10.8575 13.871 10.8448 13.633 10.7612C12.6139 10.4037 11.5759 10.075 10.6029 9.6269C9.12467 8.94757 8.72903 7.79499 9.4042 6.43253C9.96849 5.29393 10.9448 4.56402 12.2116 4.13849C13.6462 3.65489 15.1526 3.54722 16.6721 3.55014C17.4589 3.55128 18.2471 3.60289 19.2769 3.64145Z" fill="#EE6F56"/>
<path d="M9.44769 24.7811C11.2022 25.0039 12.9611 24.9704 14.7205 24.8217C14.9152 24.8048 15.113 24.7961 15.306 24.8157C15.6794 24.8527 15.9317 25.1115 15.9458 25.4387C15.9592 25.758 15.7529 26.0423 15.3834 26.0973C14.7155 26.1948 14.0424 26.2775 13.3683 26.3103C11.3792 26.4062 9.38934 26.4811 7.40049 26.543C7.09961 26.5526 7.01564 26.6622 6.96844 26.9451C6.48963 29.826 5.65598 32.6137 4.79622 35.3941C4.71703 35.6483 4.59309 35.9053 4.43001 36.1119C4.10101 36.529 3.5852 36.4294 3.44523 35.9152C3.36695 35.6273 3.34153 35.2992 3.38843 35.0045C3.65429 33.2861 3.93406 31.5687 4.23877 29.8574C4.45669 28.6339 4.71851 27.4179 4.96895 26.2009C5.20505 25.0509 5.82835 24.5334 6.97112 24.5859C7.79722 24.6231 8.6215 24.7138 9.44769 24.7811Z" fill="#EE6F56"/>
<path d="M3.16042 26.9848C2.9148 28.8534 2.67906 30.7241 2.4107 32.5895C2.36015 32.9454 2.21461 33.3028 2.04165 33.6263C1.87219 33.9422 1.53587 34.1008 1.13364 34.0628C0.715707 34.0234 0.41362 33.7971 0.304824 33.4387C0.200246 33.0992 0.122396 32.7315 0.149246 32.3842C0.422248 28.7678 0.716668 25.1531 1.01384 21.54C1.04083 21.2085 1.10385 20.876 1.19885 20.5567C1.38308 19.936 1.94336 19.5689 2.57183 19.6174C3.19317 19.6654 3.669 20.0879 3.76945 20.7252C3.81415 21.0058 3.81188 21.2984 3.78169 21.5808C3.59027 23.3839 3.38315 25.1856 3.18327 26.9867C3.1747 26.986 3.16756 26.9854 3.16042 26.9848Z" fill="#EE6F56"/>
<path d="M78.7127 37.4554C78.2727 35.9717 78.7141 34.6993 79.5354 33.5154C79.6353 33.3712 79.8009 33.258 79.958 33.1709C80.2168 33.0269 80.4915 33.0275 80.7271 33.2297C80.971 33.4391 80.9584 33.7018 80.858 33.9906C80.5916 34.7549 80.3532 35.5305 80.0783 36.2903C79.8424 36.9419 80.0202 37.4672 80.4818 37.9285C80.5786 38.0247 80.6838 38.1101 80.7896 38.2045C80.2471 38.6122 79.5508 38.4172 78.9097 37.7454C77.6464 38.2595 76.2642 38.0049 75.7177 36.4805C75.5687 36.0663 75.4821 35.5971 75.4977 35.158C75.5599 33.4963 76.1332 32.0145 77.1842 30.7328C77.3788 30.4952 77.6178 30.2843 77.8691 30.1089C78.2006 29.8773 78.5821 29.9135 78.8193 30.1427C79.0529 30.3691 79.0825 30.6878 78.8814 31.067C78.1589 32.4317 77.7091 33.8839 77.5361 35.4201C77.4229 36.4222 77.7905 37.0321 78.7127 37.4554Z" fill="#EE6F56"/>
<path d="M89.1611 14.3753C88.9491 14.5965 88.7021 14.8807 88.4289 15.1339C88.1517 15.3895 87.8281 15.5592 87.4552 15.3904C87.0912 15.225 87.0221 14.874 86.9981 14.4979C86.9665 13.991 86.8957 13.4863 86.8939 12.9804C86.8938 12.7419 86.958 12.4498 87.0961 12.2719C87.3358 11.9666 87.7984 12.0879 87.9659 12.477C88.0611 12.6986 88.0993 12.9484 88.1721 13.2216C88.2251 13.1135 88.2702 13.024 88.3138 12.9357C88.6655 12.2297 89.3471 12.1235 89.8886 12.683C90.0699 12.8704 90.2636 13.0493 90.4727 13.1993C90.5539 13.2566 90.7271 13.2721 90.7966 13.2174C90.8592 13.1691 90.8782 12.9829 90.8445 12.8856C90.7427 12.5853 90.6531 12.2628 90.4769 12.0127C89.6227 10.8015 88.6195 9.7905 87.1559 9.4287C86.6468 9.30226 86.4773 8.69775 86.8699 8.30485C87.0826 8.09055 87.4129 7.93516 87.7064 7.89602C88.5618 7.78204 89.3489 8.04214 90.0169 8.59955C91.1369 9.53505 91.9217 10.7352 92.3929 12.1578C92.4734 12.4001 92.5092 12.6634 92.5286 12.9213C92.6275 14.2163 91.6334 15.1537 90.4262 14.8731C90.0022 14.7727 89.6024 14.551 89.1611 14.3753Z" fill="#EE6F56"/>
<path d="M63.7915 19.3185C64.8129 19.2991 65.7611 19.2764 66.711 19.2647C67.077 19.2603 67.4456 19.2548 67.8083 19.2911C68.1948 19.3308 68.3991 19.5556 68.4086 19.8739C68.4176 20.1991 68.2387 20.4529 67.8604 20.5316C67.4227 20.6232 66.9765 20.6649 66.5313 20.7094C65.4585 20.8165 64.3855 20.9111 63.3132 21.0127C63.2673 21.0172 63.2221 21.0286 63.1774 21.0331C62.7323 21.0763 62.2883 21.0908 62.0043 20.6323C61.7258 20.1839 61.9121 19.761 62.1146 19.3407C62.453 18.6345 62.7829 17.9235 63.1116 17.2124C63.1776 17.07 63.2156 16.9142 63.2889 16.6971C63.0545 16.6397 62.8521 16.5616 62.6448 16.5433C62.0746 16.4914 61.5028 16.4749 60.9326 16.4244C60.6951 16.4037 60.4511 16.3701 60.2305 16.2823C59.9131 16.1565 59.7461 15.8773 59.7563 15.5031C59.7666 15.1124 59.9652 14.8493 60.2984 14.719C60.4357 14.6645 60.5958 14.6255 60.7356 14.6478C61.6618 14.7876 62.5873 14.9355 63.5082 15.1078C63.7263 15.1488 63.939 15.2715 64.1352 15.3943C64.6541 15.7186 64.9011 16.2438 64.7236 16.8687C64.5265 17.5645 64.2307 18.229 63.9744 18.9063C63.9265 19.0284 63.8675 19.1468 63.7915 19.3185Z" fill="#EE6F56"/>
<path d="M153.777 36.0628C153.978 33.7335 156.316 32.0704 158.876 32.3506C159.504 32.4197 160.061 32.6394 160.508 33.0376C160.962 33.4437 161.01 33.9564 160.674 34.4032C160.525 34.6013 160.377 34.6488 160.181 34.4442C159.87 34.1203 159.474 34.0486 159.028 34.1365C157.462 34.4473 156.234 35.0817 156.098 36.9218C156.082 37.126 156.044 37.3283 156.004 37.5305C155.939 37.8644 155.8 38.1684 155.381 38.2573C154.929 38.3542 154.574 38.164 154.302 37.86C153.795 37.2945 153.773 36.6334 153.777 36.0628Z" fill="#EE6F56"/>
<path d="M22.7164 10.396C22.5793 11.7309 22.0928 12.9853 21.6065 14.2373C21.1202 15.4893 20.6021 16.7313 20.069 17.9671C19.9467 18.2489 19.7469 18.5255 19.5056 18.7382C19.2031 19.004 18.8091 18.8966 18.7176 18.5232C18.6422 18.2131 18.619 17.87 18.6893 17.5643C19.0855 15.8514 19.5264 14.147 19.931 12.436C20.1472 11.5216 20.3358 10.6001 20.5017 9.67676C20.6131 9.05795 21.0365 8.66479 21.6542 8.69038C22.276 8.71631 22.7461 9.17854 22.7624 9.79662C22.7675 9.9948 22.7328 10.1947 22.7164 10.396Z" fill="#EE6F56"/>
<path d="M39.0308 17.0394C40.7674 17.2814 42.1104 18.1967 43.1707 19.5933C43.6081 20.17 43.8852 20.8369 43.9608 21.5751C44.0458 22.3944 43.7413 23.0393 43.0734 23.4904C42.8146 23.6654 42.7126 23.6112 42.6069 23.3174C41.8578 21.2078 40.538 19.6628 38.4999 18.827C38.2846 18.7382 38.0634 18.6603 37.8569 18.5531C37.5014 18.3688 37.3323 18.0571 37.3849 17.7265C37.4404 17.3758 37.7015 17.1132 38.104 17.0657C38.4105 17.027 38.7222 17.0448 39.0308 17.0394Z" fill="#EE6F56"/>
<path d="M13.295 17.7236C14.2498 17.8014 15.2058 17.8636 16.1583 17.9694C16.3847 17.9941 16.6073 18.1424 16.8123 18.2766C17.0646 18.443 17.2292 18.7057 17.1544 19.1025C17.0799 19.4962 16.826 19.5947 16.5527 19.6242C15.2757 19.7632 13.9983 19.9382 12.7211 20.0191C11.3987 20.1027 10.0756 20.1031 8.75409 20.1146C8.49924 20.1174 8.23509 20.0504 7.99655 19.9447C7.37128 19.6681 7.26142 18.7796 7.81741 18.2824C8.10162 18.0265 8.48332 17.8303 8.82217 17.8077C10.1211 17.7207 11.4224 17.7122 12.7219 17.6801C12.912 17.6752 13.104 17.7081 13.295 17.7236Z" fill="#EE6F56"/>
<path d="M106.84 41.9043C106.927 41.6497 107.065 41.2227 107.215 40.8006C107.394 40.3019 107.588 39.8084 107.77 39.31C107.923 38.888 108.257 38.6104 108.727 38.6664C109.115 38.712 109.528 38.8256 109.857 39.0188C110.573 39.4405 111.251 39.9238 111.932 40.3972C112.301 40.6533 112.504 41.0027 112.418 41.4478C112.331 41.8968 111.988 42.0988 111.561 42.2482C110.731 42.5401 109.914 42.8635 109.092 43.1751C108.901 43.2484 108.716 43.3426 108.519 43.3977C107.548 43.6756 106.722 43.0329 106.84 41.9043Z" fill="#EE6F56"/>
<path d="M59.2471 23.6014C60.5342 23.7641 61.822 23.9193 63.107 24.0939C63.5602 24.156 63.814 24.3855 63.8498 24.6912C63.8832 24.9803 63.6891 25.2192 63.2712 25.3623C62.7834 25.528 62.2754 25.6517 61.7994 25.8392C61.0816 26.1218 60.384 26.4443 59.678 26.7498C59.5291 26.8142 59.3884 26.8989 59.2312 26.944C58.7899 27.0699 58.3946 26.8748 58.2549 26.4764C58.2348 26.4191 58.2123 26.3604 58.2097 26.3022C58.1844 25.7908 58.0047 25.3214 57.7783 24.8471C57.426 24.1089 57.8179 23.5997 58.7166 23.545C58.8946 23.5344 59.0736 23.5413 59.2532 23.5407C59.2503 23.5612 59.2486 23.5818 59.2471 23.6014Z" fill="#EE6F56"/>
<path d="M10.029 16.7571C8.86885 16.6626 7.70724 16.5693 6.54728 16.4721C6.37985 16.4585 6.21363 16.4298 6.04963 16.3904C5.61352 16.2862 5.48117 15.8744 5.82437 15.5713C6.05023 15.3727 6.36176 15.2141 6.65198 15.1704C7.43504 15.0557 8.2281 14.9486 9.01611 14.9524C11.0087 14.9622 13.0007 15.027 14.9919 15.0861C15.3613 15.097 15.7324 15.1684 16.0968 15.2407C16.4989 15.3215 16.7139 15.567 16.7228 15.8973C16.7324 16.236 16.5426 16.5295 16.1345 16.5855C15.2327 16.7085 14.3236 16.8226 13.4163 16.8338C12.2883 16.8491 11.1609 16.7586 10.0326 16.7134C10.0315 16.7271 10.0303 16.7421 10.029 16.7571Z" fill="#EE6F56"/>
<path d="M131.837 24.4705C132.113 23.0984 132.384 21.7259 132.669 20.3558C132.719 20.116 132.81 19.8783 132.916 19.6642C133.104 19.2867 133.442 19.1244 133.751 19.222C134.083 19.3282 134.313 19.6659 134.272 20.1212C134.226 20.6276 134.113 21.1286 134.029 21.6318C133.769 23.1793 133.511 24.7281 133.248 26.2753C133.21 26.4963 133.167 26.7208 133.098 26.9314C133.003 27.2202 132.817 27.4041 132.558 27.4239C132.298 27.4435 132.075 27.2936 132.004 27.0097C131.902 26.5993 131.834 26.1641 131.818 25.7331C131.803 25.3219 131.875 24.9033 131.909 24.4869C131.886 24.4824 131.861 24.4764 131.837 24.4705Z" fill="#EE6F56"/>
<path d="M105.229 18.2705C104.906 18.235 104.7 18.0768 104.663 17.7173C104.627 17.3685 104.81 17.0776 105.157 16.9999C105.854 16.843 106.556 16.722 107.256 16.5807C108.944 16.2403 110.632 15.8967 112.321 15.5578C112.537 15.514 112.757 15.4996 112.975 15.462C113.384 15.3893 113.719 15.6195 113.779 16.0224C113.843 16.4472 113.588 16.8106 113.154 16.8874C111.921 17.1066 110.686 17.3181 109.453 17.5373C108.147 17.769 106.84 18.0037 105.533 18.2354C105.426 18.2528 105.317 18.2592 105.229 18.2705Z" fill="#EE6F56"/>
<path d="M130.124 19.9526C130.051 20.3198 129.965 20.8478 129.831 21.3557C129.791 21.5084 129.63 21.6856 129.509 21.7174C128.999 21.8512 128.484 21.94 127.969 22.0333C127.705 22.0817 127.439 22.1313 127.175 22.1351C126.635 22.1446 126.381 21.5191 126.656 20.8622C126.869 20.3533 127.096 19.8531 127.321 19.3527C127.44 19.0889 127.629 18.9363 127.825 19.0578C128.17 19.2732 128.513 19.1407 128.861 19.0649C129.066 19.0207 129.267 18.9449 129.472 18.8992C129.99 18.7868 130.202 19.0761 130.124 19.9526Z" fill="#EE6F56"/>
<path d="M155.578 22.4658C155.417 22.8948 155.316 23.3668 155.077 23.7403C154.905 24.0087 154.56 24.1744 154.266 24.325C154.169 24.3744 153.918 24.2803 153.854 24.1741C153.632 23.804 153.385 23.421 153.287 23.005C153.12 22.2928 153.032 21.5558 152.963 20.8229C152.903 20.1917 153.219 19.6949 153.699 19.5321C154.201 19.3615 154.726 19.5816 155.044 20.1206C155.46 20.8271 155.533 21.6176 155.578 22.4658Z" fill="#EE6F56"/>
<path d="M19.8365 11.7787C19.7284 12.7366 18.9738 13.3359 18.0239 13.2477C17.1798 13.1695 16.2718 12.2493 16.4136 11.2792C16.5555 10.3078 17.3181 9.69424 18.3166 9.80535C19.2476 9.90691 19.9451 10.814 19.8365 11.7787Z" fill="#EE6F56"/>
<path d="M95.4628 36.846C95.6849 36.6317 95.8292 36.399 96.0588 36.2877C96.8809 35.8887 97.7289 35.5267 98.5744 35.1609C98.9761 34.9878 99.273 35.1468 99.3409 35.534C99.4106 35.9334 99.4934 36.3327 99.5865 36.7291C99.6602 37.0446 99.6055 37.2569 99.1994 37.3948C98.3769 37.6733 97.5807 38.001 96.7719 38.3072C96.4403 38.4331 96.1433 38.3282 96.0033 38.0832C95.7878 37.7032 95.6527 37.2925 95.4628 36.846Z" fill="#EE6F56"/>
<path d="M26.9372 35.2907C27.2088 34.4365 27.4428 33.6349 27.7244 32.8434C27.9126 32.3158 28.4199 32.0757 28.9944 32.1783C29.5936 32.2853 30.0149 32.7101 29.8621 33.2332C29.5638 34.2502 29.1784 35.2502 28.7996 36.2507C28.7355 36.4227 28.5541 36.579 28.3831 36.7101C27.9324 37.0552 27.402 36.986 27.1935 36.5103C27.0189 36.1118 27.0125 35.6774 26.9372 35.2907Z" fill="#EE6F56"/>
<path d="M158.782 35.8081C159.225 35.894 159.657 35.9632 159.903 36.3972C160.005 36.5758 160.032 36.6749 159.758 36.794C159.169 37.0513 158.68 37.4765 158.399 38.1138C158.31 38.3174 158.233 38.5338 158.108 38.7136C157.663 39.3571 156.913 39.2921 156.588 38.578C156.28 37.9019 156.388 37.2544 156.843 36.6902C157.35 36.0622 158.028 35.8096 158.782 35.8081Z" fill="#EE6F56"/>
<path d="M47.3552 31.5154C47.4259 31.3577 47.5241 31.0197 47.7009 30.7669C48.0299 30.2945 48.4007 29.8634 48.7626 29.4272C49.163 28.9445 49.5792 28.482 49.9797 27.9979C50.243 27.6792 50.5488 27.5902 50.8055 27.7922C51.0546 27.9891 51.146 28.4009 51.0031 28.8053C50.9354 28.9969 50.8391 29.1846 50.7289 29.3435C50.0066 30.3825 49.1703 31.2574 48.2587 32.0182C48.1531 32.1074 48.038 32.1841 47.9208 32.2447C47.5489 32.4348 47.2913 32.1861 47.3552 31.5154Z" fill="#EE6F56"/>
<path d="M58.9655 8.1687C59.1462 7.32175 59.3435 6.39011 59.5433 5.45995C59.6361 5.02845 59.7333 4.59731 59.8294 4.16735C59.8446 4.10152 59.8614 4.03583 59.8817 3.97169C59.998 3.61043 60.2091 3.44542 60.4252 3.54527C60.625 3.63873 60.7303 3.94591 60.6591 4.29693C60.4803 5.17566 60.2929 6.05116 60.1056 6.92541C59.9913 7.45765 59.8822 7.99157 59.7501 8.51476C59.6598 8.87307 59.4507 9.03446 59.2363 8.9689C59.0286 8.90644 58.9179 8.62285 58.9655 8.1687Z" fill="#EE6F56"/>
<path d="M52.0425 11.1646C52.7305 11.2227 53.0788 11.4105 53.1207 11.6781C53.1624 11.949 52.9302 12.1269 52.3649 12.2402C52.0762 12.298 51.779 12.3305 51.4927 12.3917C50.7485 12.5503 50.0009 12.7023 49.2679 12.8876C48.7543 13.018 48.467 13.0096 48.2919 12.7803C48.1144 12.5487 48.2191 12.2566 48.5956 12.0006C49.3474 11.4874 50.2779 11.3225 51.2292 11.2106C51.544 11.1742 51.8705 11.1741 52.0425 11.1646Z" fill="#EE6F56"/>
<path d="M15.1196 32.4281C14.7216 32.3807 14.4276 32.1808 14.2631 31.8113C14.0321 31.2904 13.8184 30.76 13.6114 30.226C13.5557 30.0823 13.5324 29.9154 13.5261 29.7579C13.5017 29.1052 14.0664 28.6996 14.6116 28.9855C14.7615 29.0645 14.9081 29.1856 15.0098 29.3262C15.3471 29.7917 15.6775 30.2633 15.981 30.7533C16.2148 31.1298 16.2204 31.545 15.9884 31.9422C15.7847 32.2886 15.477 32.4286 15.1196 32.4281Z" fill="#EE6F56"/>
<path d="M23.1061 22.7304C23.1392 22.5338 23.1535 22.4143 23.18 22.2981C23.3166 21.7115 23.7651 21.3375 24.2704 21.3847C24.7938 21.4334 25.2388 21.9273 25.2025 22.5268C25.1805 22.8945 25.0684 23.2778 24.9116 23.6092C24.7218 24.0091 24.3632 24.2032 23.9265 24.1254C23.4896 24.0488 23.2485 23.7369 23.1541 23.3018C23.1096 23.0929 23.1174 22.8714 23.1061 22.7304Z" fill="#EE6F56"/>
<path d="M132.945 28.1561C134.038 28.235 134.511 29.2005 133.992 30.2482C133.708 30.8218 132.872 30.9574 132.333 30.8757C131.819 30.7974 131.469 30.3541 131.419 29.8116C131.345 28.9979 132.172 28.1004 132.945 28.1561Z" fill="#EE6F56"/>
<path d="M116.076 17.7553C115.896 17.7406 115.715 17.7389 115.537 17.7085C115.166 17.6479 114.992 17.1657 115.188 16.66C115.371 16.1867 115.589 15.735 115.821 15.3091C116.032 14.9235 116.385 14.9058 116.57 15.2585C116.765 15.6323 116.939 16.0362 117.106 16.4439C117.231 16.7467 117.228 17.0754 117.076 17.4021C116.918 17.7413 116.715 17.8595 116.461 17.7881C116.335 17.7532 116.206 17.747 116.078 17.7265C116.079 17.7352 116.077 17.7452 116.076 17.7553Z" fill="#EE6F56"/>
<path d="M84.0464 11.6895C83.4098 11.6005 82.9955 10.964 83.0716 10.1898C83.1467 9.42995 83.6633 8.85475 84.202 8.93095C84.7889 9.01431 85.2057 9.78187 85.1166 10.6133C85.0422 11.3069 84.5876 11.7643 84.0464 11.6895Z" fill="#EE6F56"/>
<path d="M124.536 28.9728C124.6 28.1475 124.957 27.5169 125.347 27.5373C125.726 27.5583 125.988 28.1546 125.931 28.8666C125.871 29.6256 125.469 30.3127 125.097 30.2905C124.731 30.2673 124.48 29.6784 124.536 28.9728Z" fill="#EE6F56"/>
<path d="M100.113 22.3215C100.156 21.7735 100.611 21.3671 101.139 21.4047C101.682 21.4434 102.214 21.9986 102.18 22.4898C102.141 23.056 101.583 23.5306 101.021 23.4752C100.436 23.4166 100.065 22.9457 100.113 22.3215Z" fill="#EE6F56"/>
<path d="M68.1328 31.8764C68.1493 31.4385 68.3851 31.2415 68.8718 31.2594C69.2439 31.2733 69.5168 31.5621 69.5098 31.9383C69.5028 32.3321 69.1675 32.6992 68.8126 32.639C68.3717 32.565 68.0451 32.4459 68.1328 31.8764Z" fill="#EE6F56"/>
<path d="M66.4894 17.9554C66.4622 18.2727 66.0972 18.5503 65.7453 18.5217C65.3393 18.4886 65.074 18.1626 65.1192 17.7545C65.1613 17.3839 65.4754 17.1113 65.8272 17.1414C66.1976 17.1716 66.5232 17.5721 66.4894 17.9554Z" fill="#EE6F56"/>
<path d="M55.909 12.8664C55.4883 12.8347 55.133 12.6448 55.1481 12.459C55.1635 12.2699 55.4844 12.1341 55.839 12.1673C56.1986 12.201 56.5308 12.4046 56.5244 12.5876C56.5187 12.7611 56.2304 12.8908 55.909 12.8664Z" fill="#EE6F56"/>
<path d="M70.0547 9.1488C69.7615 9.12491 69.458 9.13965 69.1785 9.06979C68.1373 8.81058 67.4418 7.87811 67.4155 6.76592C67.4001 6.11417 67.6253 5.5202 67.9258 4.94764C68.5281 3.80263 69.3966 2.83843 70.4537 2.00925C70.606 1.89054 70.7813 1.78643 70.9643 1.71095C71.2564 1.59089 71.5483 1.6134 71.7743 1.84949C72.0043 2.08972 71.9637 2.34356 71.7748 2.57895C71.4334 3.00687 71.0429 3.40661 70.748 3.85869C70.2739 4.58514 69.7838 5.31538 69.4393 6.09568C69.0252 7.03069 69.2812 7.94901 69.9321 8.7811C69.9902 8.85584 70.0394 8.93495 70.093 9.01188C70.0808 9.05671 70.067 9.1027 70.0547 9.1488Z" fill="#EE6F56"/>
<path d="M71.6179 8.58045C71.366 8.62377 71.1888 8.49421 71.0749 8.30481C70.9711 8.13106 70.8729 7.93155 70.8545 7.73625C70.7825 6.96204 70.9154 6.21591 71.2675 5.51843C71.427 5.20425 71.679 5.09025 71.9482 5.17146C72.2252 5.25559 72.3974 5.51698 72.321 5.86416C72.1755 6.52717 71.9906 7.18128 71.8191 7.83876C71.7555 8.08551 71.6864 8.32954 71.6179 8.58045Z" fill="#EE6F56"/>
</svg>
