<svg width="20" height="17" viewBox="0 0 20 17" fill="none" xmlns="http://www.w3.org/2000/svg">
<path d="M19.1663 1.50002C18.3683 2.06292 17.4848 2.49344 16.5497 2.77502C16.0478 2.19794 15.3808 1.78893 14.6389 1.60329C13.897 1.41765 13.1159 1.46435 12.4014 1.73706C11.6869 2.00978 11.0734 2.49535 10.6438 3.12812C10.2143 3.76088 9.98942 4.5103 9.99967 5.27502V6.10835C8.5352 6.14632 7.08407 5.82153 5.77551 5.16289C4.46696 4.50425 3.34161 3.53221 2.49967 2.33335C2.49967 2.33335 -0.833659 9.83335 6.66634 13.1667C4.95011 14.3317 2.90564 14.9158 0.833008 14.8334C8.33301 19 17.4997 14.8334 17.4997 5.25002C17.4989 5.0179 17.4766 4.78635 17.433 4.55835C18.2835 3.7196 18.8837 2.66061 19.1663 1.50002V1.50002Z" stroke="#C6CBD2" stroke-linecap="round" stroke-linejoin="round"/>
</svg>
