<svg width="26" height="20" viewBox="0 0 26 20" fill="none" xmlns="http://www.w3.org/2000/svg">
<path d="M25.2834 2.36769C24.368 2.76923 23.3926 3.03538 22.3757 3.16462C23.4218 2.54 24.2203 1.55846 24.5957 0.375385C23.6203 0.956923 22.5434 1.36769 21.3957 1.59692C20.4695 0.610769 19.1495 0 17.7095 0C14.9157 0 12.6664 2.26769 12.6664 5.04769C12.6664 5.44769 12.7003 5.83231 12.7834 6.19846C8.58797 5.99385 4.87566 3.98308 2.38181 0.92C1.94643 1.67538 1.69105 2.54 1.69105 3.47077C1.69105 5.21846 2.59105 6.76769 3.93258 7.66462C3.12181 7.64923 2.32643 7.41385 1.65258 7.04308C1.65258 7.05846 1.65258 7.07846 1.65258 7.09846C1.65258 9.55077 3.40182 11.5877 5.69566 12.0569C5.28489 12.1692 4.8372 12.2231 4.37258 12.2231C4.04951 12.2231 3.72335 12.2046 3.4172 12.1369C4.07105 14.1354 5.92643 15.6046 8.13258 15.6523C6.41566 16.9954 4.23566 17.8046 1.87566 17.8046C1.46181 17.8046 1.06489 17.7862 0.667969 17.7354C2.90335 19.1769 5.55258 20 8.40951 20C17.6957 20 22.7726 12.3077 22.7726 5.64C22.7726 5.41692 22.7649 5.20154 22.7541 4.98769C23.7557 4.27692 24.5972 3.38923 25.2834 2.36769Z" fill="#7575FE"/>
</svg>
