<svg width="22" height="20" viewBox="0 0 22 20" fill="none" xmlns="http://www.w3.org/2000/svg">
<path d="M19.5046 4.62488C16.5046 -0.000152887 10.3796 -1.37516 5.62952 1.49986C1.00449 4.37488 -0.495526 10.6249 2.5045 15.25L2.7545 15.625L1.75449 19.375L5.50452 18.375L5.87952 18.625C7.50454 19.5 9.25455 20 11.0046 20C12.8796 20 14.7546 19.5 16.3796 18.5C21.0046 15.5 22.3796 9.37492 19.5046 4.62488ZM16.8796 14.25C16.3796 15 15.7546 15.5 14.8796 15.625C14.3796 15.625 13.7546 15.875 11.2546 14.875C9.12955 13.875 7.37953 12.2499 6.12952 10.3749C5.37952 9.49992 5.00452 8.37491 4.87952 7.2499C4.87952 6.2499 5.25452 5.37489 5.87952 4.74988C6.12953 4.49988 6.37953 4.37488 6.62953 4.37488H7.25453C7.50454 4.37488 7.75454 4.37488 7.87954 4.87488C8.12954 5.49989 8.75454 6.9999 8.75454 7.1249C8.87955 7.2499 8.87955 7.49991 8.75454 7.62491C8.87955 7.87491 8.75455 8.12491 8.62954 8.24991C8.50454 8.37491 8.37954 8.62491 8.25454 8.74991C8.00454 8.87492 7.87954 9.12492 8.00454 9.37492C8.50454 10.1249 9.12955 10.8749 9.75455 11.4999C10.5046 12.1249 11.2546 12.6249 12.1296 12.9999C12.3796 13.1249 12.6296 13.1249 12.7546 12.8749C12.8796 12.6249 13.5046 11.9999 13.7546 11.7499C14.0046 11.4999 14.1296 11.4999 14.3796 11.6249L16.3796 12.6249C16.6296 12.7499 16.8796 12.8749 17.0046 12.9999C17.1296 13.3749 17.1296 13.875 16.8796 14.25Z" fill="#7575FE"/>
</svg>
